<svg fill="none" height="225" viewBox="0 0 263 225" width="263" xmlns="http://www.w3.org/2000/svg">
  <defs>
    <linearGradient gradientUnits="userSpaceOnUse" id="paint0_linear" x1="218.399" x2="100.117" y1="76.7189"
      y2="170.415">
      <stop stop-color="white" />
      <stop offset="1" stop-color="#CBCBCB" />
    </linearGradient>
    <linearGradient gradientUnits="userSpaceOnUse" id="paint1_linear" x1="-39894.5" x2="-39896.8" y1="-2777.79"
      y2="-2753.04">
      <stop stop-color="white" />
      <stop offset="1" stop-color="#CBCBCB" />
    </linearGradient>
    <linearGradient gradientUnits="userSpaceOnUse" id="paint2_linear" x1="-5967.96" x2="-5971.77" y1="700.867"
      y2="722.743">
      <stop stop-color="white" />
      <stop offset="1" stop-color="#CBCBCB" />
    </linearGradient>
    <linearGradient gradientUnits="userSpaceOnUse" id="paint3_linear" x1="34.9595" x2="107.75" y1="94.7643"
      y2="157.239">
      <stop offset="0.01" />
      <stop offset="0.13" stop-opacity="0.69" />
      <stop offset="0.25" stop-opacity="0.32" />
      <stop offset="1" stop-opacity="0" />
    </linearGradient>
    <clipPath id="clip0">
      <rect fill="white" height="225" width="263" />
    </clipPath>
  </defs>
  <g clip-path="url(#clip0)">
    <path
      d="M169 0.754957C225.155 -6.31677 244.414 38.2192 247.624 53.8725C255.097 90.3879 245.01 104.13 244.296 118.058C243.534 133.047 263.015 143.055 263.015 158.078C262.923 174.279 256.514 189.805 245.149 201.361C229.169 217.457 205.528 223.525 182.872 224.709C160.216 225.893 137.484 222.936 114.821 224.155C93.3637 225.305 -16.6864 204.131 2.16367 104.587C7.30082 77.4219 51.2613 70.2878 74.3472 52.0717C92.8784 37.4019 109.732 8.22841 169 0.754957Z"
      fill="#FAE50A" opacity="0.18" />
    <path
      d="M237.353 192.417C237.92 177.738 193.671 164.116 138.519 161.989C83.3674 159.863 38.1985 170.038 37.6316 184.716C37.0646 199.394 81.3142 213.017 136.466 215.144C191.618 217.27 236.787 207.095 237.353 192.417Z"
      fill="#FAE50A" opacity="0.35" />
    <path
      d="M121.087 26.9709V172.88C121.087 179.183 126.55 184.835 133.282 185.493L198.45 191.899C205.174 192.557 210.637 187.986 210.637 181.676V35.7673C210.637 29.4574 205.174 23.8056 198.45 23.1476L133.282 16.7408C126.55 16.0828 121.087 20.6611 121.087 26.9709ZM127.327 27.6635C127.327 23.7779 130.689 20.952 134.842 21.3606L144.021 22.268V23.1268C144.086 24.3972 144.609 25.6011 145.493 26.5163C146.378 27.4316 147.563 27.9965 148.832 28.1068L183.842 31.57C186.497 31.8262 188.647 30.0254 188.647 27.5389V26.68L198.131 27.6081C202.29 28.0168 205.646 31.5007 205.646 35.3863V180.887C205.646 184.772 202.283 187.591 198.131 187.183L134.842 180.949C130.682 180.54 127.327 177.063 127.327 173.171V27.6635Z"
      fill="#FAE50A" />
    <path
      d="M118.023 29.6652V175.574C118.023 181.877 123.486 187.529 130.217 188.187L195.385 194.594C202.11 195.252 207.573 190.68 207.573 184.37V38.4616C207.573 32.1518 202.11 26.4999 195.385 25.8419L130.217 19.4421C123.486 18.7771 118.023 23.3554 118.023 29.6652ZM124.262 30.3579C124.262 26.4722 127.625 23.6463 131.777 24.055L140.956 24.9623V25.8211C141.022 27.0915 141.545 28.2954 142.429 29.2107C143.313 30.1259 144.499 30.6908 145.767 30.8011L180.778 34.2643C183.433 34.5205 185.582 32.7197 185.582 30.2332V29.3743L195.059 30.3024C199.219 30.7111 202.574 34.195 202.574 38.0807V183.581C202.574 187.467 199.212 190.286 195.059 189.877L131.77 183.643C127.611 183.235 124.255 179.758 124.255 175.865L124.262 30.3579Z"
      fill="white" />
    <path
      d="M124.241 30.3856V175.879C124.241 179.771 127.604 183.248 131.757 183.657L195.045 189.891C199.205 190.299 202.56 187.48 202.56 183.595V38.0945C202.56 34.2089 199.198 30.7249 195.045 30.3163L185.561 29.3743V30.2401C185.561 32.7266 183.412 34.5275 180.757 34.2712L145.747 30.8081C144.478 30.6978 143.293 30.1329 142.408 29.2176C141.524 28.3023 141.001 27.0985 140.935 25.8281V24.99L131.757 24.0827C127.604 23.674 124.241 26.4999 124.241 30.3856Z"
      stroke="url(#paint0_linear)" stroke-miterlimit="10" stroke-width="0.64" />
    <path
      d="M124.241 30.3856V175.879C124.241 179.771 127.604 183.248 131.757 183.657L195.045 189.891C199.205 190.299 202.56 187.48 202.56 183.595V38.0945C202.56 34.2089 199.198 30.7249 195.045 30.3163L185.561 29.3743V30.2401C185.561 32.7266 183.412 34.5275 180.757 34.2712L145.747 30.8081C144.478 30.6978 143.293 30.1329 142.408 29.2176C141.524 28.3023 141.001 27.0985 140.935 25.8281V24.99L131.757 24.0827C127.604 23.674 124.241 26.4999 124.241 30.3856Z"
      fill="white" />
    <path
      d="M202.56 38.0945V183.581C202.56 187.467 199.198 190.286 195.045 189.884L131.958 183.65H131.757C127.597 183.241 124.241 179.765 124.241 175.872V30.3856C124.241 26.4999 127.604 23.674 131.757 24.0896L140.942 24.9831V25.8489C141.005 27.1191 141.526 28.3237 142.409 29.2394C143.293 30.1551 144.478 30.7198 145.747 30.8288L146.44 30.8981L180.75 34.2712C183.405 34.5275 185.561 32.7266 185.561 30.2401V29.3674L195.059 30.3094C195.817 30.3811 196.562 30.5583 197.271 30.8358C198.776 31.3822 200.083 32.3649 201.025 33.658C201.968 34.9512 202.502 36.496 202.56 38.0945Z"
      fill="#FAE50A" opacity="0.18" />
    <path
      d="M202.561 38.0945V183.581C202.561 187.467 199.198 190.286 195.045 189.884L131.958 183.65C128.907 182.452 126.689 179.571 126.689 176.405V30.9397C126.689 27.0471 130.051 24.2281 134.197 24.6368L140.942 25.3294L143.383 25.5649V26.4376C143.418 27.3973 143.724 28.3275 144.265 29.1214C144.805 29.9154 145.559 30.5408 146.44 30.9258C146.99 31.186 147.581 31.35 148.187 31.4106L183.197 34.8738C185.853 35.1301 188.009 33.3223 188.009 30.8427V29.9215L197.257 30.8358C198.764 31.3799 200.075 32.3617 201.02 33.655C201.965 34.9484 202.501 36.4943 202.561 38.0945Z"
      fill="#FAE50A" opacity="0.18" />
    <path d="M158.475 28.9103L170.51 30.0947V29.0973L158.475 27.9129V28.9103Z" fill="url(#paint1_linear)" />
    <path
      d="M156.469 28.6453C156.801 28.0772 156.551 27.3132 155.91 26.9386C155.268 26.5641 154.479 26.721 154.147 27.289C153.814 27.857 154.065 28.6211 154.706 28.9956C155.347 29.3701 156.137 29.2133 156.469 28.6453Z"
      fill="url(#paint2_linear)" />
    <g opacity="0.19">
      <path
        d="M133.018 175.546C132.038 175.476 131.122 175.032 130.46 174.307C129.961 173.766 129.483 173.198 128.97 172.672C128.543 172.138 127.96 171.752 127.301 171.568C126.643 171.384 125.944 171.412 125.302 171.647C123.957 172.139 124.879 171.536 124.845 173.032C124.845 173.801 124.845 174.57 124.845 175.339C124.851 175.8 124.76 176.257 124.576 176.68C124.392 177.104 124.121 177.483 123.779 177.793C123.438 178.104 123.034 178.338 122.595 178.481C122.156 178.624 121.692 178.672 121.233 178.622C119.846 178.525 118.446 178.414 117.031 178.289C116.034 178.201 115.105 177.742 114.429 177.004C113.752 176.265 113.377 175.301 113.378 174.3C113.378 173.531 113.378 172.762 113.378 171.993C113.374 171.305 113.171 170.632 112.795 170.055C112.419 169.478 111.885 169.02 111.256 168.738C110.701 168.413 110.056 168.277 109.417 168.351C108.778 168.425 108.18 168.704 107.714 169.147C107.201 169.597 106.729 170.088 106.223 170.532C104.705 171.917 102.514 171.702 101.024 170.082C99.9908 168.96 98.944 167.831 97.9456 166.688C96.4412 164.998 96.4482 162.83 97.9456 161.375C98.424 160.918 98.9232 160.489 99.3877 159.99C99.8649 159.543 100.191 158.959 100.322 158.319C100.452 157.679 100.38 157.014 100.116 156.416C99.905 155.765 99.5101 155.189 98.9785 154.757C98.447 154.326 97.8016 154.058 97.1206 153.985C96.3719 153.888 95.6232 153.874 94.8744 153.784C93.8365 153.701 92.8723 153.215 92.1882 152.43C91.5042 151.646 91.1545 150.625 91.214 149.587C91.214 148.201 91.214 146.858 91.214 145.493C91.1851 145.043 91.25 144.592 91.4047 144.169C91.5595 143.745 91.8006 143.358 92.1127 143.033C92.4249 142.707 92.8014 142.45 93.2184 142.277C93.6353 142.105 94.0835 142.021 94.5347 142.03C95.3043 142.03 96.0807 142.113 96.8503 142.176C97.5277 142.278 98.2197 142.144 98.8104 141.798C99.401 141.451 99.8545 140.912 100.095 140.271C100.67 138.955 100.351 137.604 99.2213 136.344C98.7637 135.831 98.2923 135.332 97.8347 134.813C97.1743 134.13 96.8052 133.217 96.8052 132.268C96.8052 131.318 97.1743 130.405 97.8347 129.722C98.9301 128.649 100.046 127.603 101.197 126.605C101.926 126.016 102.856 125.736 103.789 125.824C104.722 125.912 105.583 126.361 106.189 127.076C106.709 127.63 107.201 128.219 107.735 128.766C108.157 129.27 108.724 129.631 109.359 129.802C109.994 129.973 110.666 129.945 111.284 129.722C111.906 129.529 112.446 129.137 112.822 128.606C113.198 128.075 113.389 127.435 113.364 126.785C113.364 126.093 113.364 125.345 113.364 124.631C113.42 122.325 114.938 120.926 117.191 121.092L121.101 121.404C122.127 121.473 123.088 121.93 123.788 122.683C124.488 123.436 124.873 124.428 124.865 125.456C124.865 126.148 124.865 126.841 124.865 127.533C124.836 128.246 125.017 128.951 125.387 129.561C125.757 130.171 126.299 130.659 126.945 130.962C127.532 131.303 128.216 131.439 128.889 131.349C129.562 131.258 130.185 130.947 130.661 130.463C131.126 130.027 131.576 129.584 132.048 129.154C132.41 128.836 132.832 128.594 133.289 128.442C133.746 128.29 134.229 128.231 134.71 128.269C135.19 128.307 135.658 128.441 136.086 128.664C136.513 128.886 136.892 129.192 137.199 129.563C138.273 130.713 139.334 131.883 140.381 133.061C140.723 133.402 140.994 133.808 141.179 134.254C141.364 134.7 141.459 135.178 141.459 135.661C141.459 136.144 141.364 136.623 141.179 137.069C140.994 137.515 140.723 137.921 140.381 138.262C139.875 138.754 139.334 139.211 138.835 139.71C138.389 140.134 138.08 140.682 137.949 141.284C137.818 141.885 137.871 142.512 138.1 143.083C138.272 143.725 138.624 144.303 139.116 144.75C139.608 145.197 140.218 145.494 140.873 145.604C141.663 145.757 142.468 145.77 143.265 145.847C144.231 145.89 145.141 146.312 145.798 147.021C146.455 147.73 146.805 148.67 146.773 149.635C146.819 151.201 146.819 152.764 146.773 154.324C146.704 156.548 144.915 159.339 142.738 159.173C142.045 159.124 138.239 158.48 137.726 159.796C137.213 161.112 137.885 161.922 138.849 163.031C139.348 163.606 139.889 164.153 140.388 164.728C141.075 165.42 141.461 166.356 141.461 167.332C141.461 168.307 141.075 169.243 140.388 169.936C139.348 170.954 138.308 171.945 137.213 172.942C136.485 173.697 134.793 175.519 133.018 175.546ZM104.046 148.659C104.046 157.254 110.743 164.714 119.097 165.386C125.891 165.441 131.791 160.752 131.784 152.226C131.804 148.205 130.294 144.327 127.56 141.376C124.827 138.425 121.073 136.621 117.059 136.33C108.691 135.63 104.06 140.077 104.046 148.659Z"
        fill="#020202" opacity="0.19" />
    </g>
    <path
      d="M132.713 175.082C131.733 175.018 130.816 174.576 130.155 173.849C129.656 173.309 129.178 172.741 128.665 172.208C128.237 171.676 127.653 171.292 126.995 171.11C126.337 170.927 125.638 170.955 124.997 171.19C124.366 171.398 123.821 171.808 123.445 172.356C123.069 172.904 122.884 173.56 122.917 174.223C122.917 174.992 122.917 175.761 122.917 176.53C122.924 176.991 122.833 177.449 122.649 177.872C122.465 178.295 122.194 178.674 121.852 178.985C121.511 179.295 121.107 179.53 120.668 179.672C120.229 179.815 119.764 179.863 119.305 179.813C117.919 179.716 116.518 179.605 115.104 179.481C114.106 179.392 113.178 178.934 112.501 178.195C111.825 177.457 111.45 176.492 111.451 175.491C111.451 174.715 111.451 173.953 111.451 173.185C111.446 172.496 111.244 171.823 110.868 171.246C110.492 170.669 109.958 170.212 109.329 169.929C108.775 169.603 108.129 169.467 107.489 169.541C106.85 169.614 106.252 169.894 105.787 170.338C105.274 170.788 104.802 171.28 104.296 171.723C102.778 173.108 100.587 172.894 99.0965 171.273C98.0636 170.144 97.0167 169.022 96.0184 167.879C94.514 166.189 94.5209 164.021 96.0184 162.567C96.4968 162.109 96.9959 161.68 97.4604 161.181C97.9394 160.736 98.267 160.152 98.3975 159.511C98.5281 158.87 98.4549 158.205 98.1884 157.607C97.9778 156.956 97.5828 156.38 97.0513 155.949C96.5197 155.517 95.8744 155.249 95.1934 155.176C94.4447 155.079 93.6959 155.065 92.9541 154.975C91.9149 154.894 90.949 154.409 90.2635 153.624C89.578 152.839 89.2273 151.818 89.2867 150.778C89.2867 149.393 89.2867 148.049 89.2867 146.685C89.2578 146.235 89.3228 145.784 89.4775 145.36C89.6322 144.937 89.8733 144.55 90.1855 144.224C90.4977 143.899 90.8742 143.641 91.2911 143.469C91.708 143.296 92.1563 143.212 92.6075 143.221C93.377 143.221 94.1535 143.305 94.923 143.367C95.6004 143.469 96.2925 143.336 96.8831 142.989C97.4738 142.642 97.9273 142.103 98.1676 141.462C98.743 140.146 98.4241 138.796 97.294 137.535C96.8365 137.022 96.365 136.524 95.9075 136.004C95.2483 135.319 94.8801 134.406 94.8801 133.455C94.8801 132.505 95.2483 131.592 95.9075 130.907C97.0028 129.84 98.119 128.794 99.2699 127.79C99.9999 127.203 100.93 126.925 101.863 127.014C102.795 127.103 103.656 127.553 104.261 128.268C104.781 128.822 105.274 129.41 105.807 129.958C106.23 130.461 106.797 130.823 107.432 130.994C108.066 131.164 108.739 131.137 109.357 130.913C109.979 130.721 110.519 130.328 110.895 129.797C111.271 129.267 111.462 128.627 111.437 127.977C111.437 127.284 111.437 126.536 111.437 125.823C111.492 123.516 113.011 122.11 115.264 122.283C116.567 122.387 117.87 122.484 119.174 122.595C120.2 122.664 121.161 123.122 121.861 123.875C122.56 124.628 122.946 125.619 122.938 126.647C122.938 127.34 122.938 128.032 122.938 128.725C122.909 129.437 123.09 130.143 123.46 130.753C123.83 131.363 124.372 131.85 125.018 132.153C125.605 132.494 126.289 132.63 126.961 132.54C127.634 132.45 128.258 132.138 128.734 131.655C129.198 131.218 129.649 130.775 130.12 130.346C130.482 130.027 130.904 129.785 131.362 129.633C131.819 129.481 132.302 129.422 132.783 129.46C133.263 129.499 133.731 129.633 134.158 129.855C134.586 130.077 134.965 130.383 135.272 130.754C136.346 131.904 137.407 133.074 138.454 134.217C138.796 134.559 139.067 134.964 139.252 135.411C139.437 135.857 139.532 136.335 139.532 136.818C139.532 137.301 139.437 137.779 139.252 138.226C139.067 138.672 138.796 139.077 138.454 139.419C137.948 139.911 137.414 140.368 136.908 140.867C136.461 141.291 136.153 141.839 136.022 142.44C135.891 143.042 135.943 143.668 136.173 144.24C136.344 144.881 136.697 145.46 137.189 145.907C137.68 146.354 138.29 146.65 138.946 146.761C139.736 146.913 140.54 146.92 141.338 147.003C142.304 147.046 143.214 147.468 143.871 148.178C144.527 148.887 144.878 149.826 144.846 150.792C144.896 152.357 144.896 153.92 144.846 155.481C144.776 157.704 143.404 158.944 141.227 158.771C140.533 158.722 139.84 158.639 139.147 158.619C138.513 158.577 137.883 158.748 137.356 159.104C136.83 159.46 136.438 159.982 136.242 160.586C135.989 161.191 135.919 161.857 136.043 162.501C136.166 163.145 136.476 163.739 136.935 164.208C137.435 164.783 137.975 165.33 138.474 165.898C139.162 166.592 139.548 167.529 139.548 168.506C139.548 169.483 139.162 170.42 138.474 171.114C137.435 172.132 136.395 173.122 135.299 174.12C134.965 174.459 134.56 174.722 134.113 174.888C133.667 175.054 133.189 175.121 132.713 175.082ZM102.119 149.836C102.119 158.425 108.823 165.891 117.17 166.563C125.517 167.235 132.284 160.8 132.284 152.253C132.284 143.706 125.524 136.247 117.246 135.575C108.969 134.903 102.161 141.254 102.119 149.836Z"
      fill="#FAE50A" />
    <g opacity="0.19">
      <path
        d="M160.458 145.154C159.958 145.121 159.491 144.895 159.155 144.524C158.898 144.247 158.656 143.956 158.399 143.686C158.18 143.416 157.882 143.221 157.546 143.128C157.211 143.035 156.855 143.048 156.527 143.166C155.834 143.415 156.312 143.111 156.292 143.859C156.292 144.253 156.292 144.648 156.292 145.036C156.294 145.271 156.246 145.504 156.152 145.72C156.058 145.935 155.919 146.129 155.745 146.287C155.571 146.445 155.365 146.565 155.142 146.638C154.918 146.711 154.682 146.737 154.447 146.712L152.305 146.539C151.799 146.487 151.329 146.25 150.986 145.875C150.642 145.5 150.448 145.011 150.44 144.503C150.44 144.115 150.44 143.72 150.44 143.325C150.437 142.975 150.333 142.633 150.142 142.34C149.95 142.046 149.678 141.814 149.359 141.67C149.076 141.503 148.746 141.433 148.419 141.471C148.093 141.508 147.787 141.651 147.549 141.878C147.293 142.106 147.05 142.356 146.794 142.57C146.607 142.735 146.388 142.86 146.152 142.937C145.915 143.015 145.665 143.044 145.417 143.023C145.169 143.001 144.928 142.93 144.708 142.813C144.488 142.696 144.295 142.536 144.139 142.342C143.612 141.767 143.085 141.192 142.565 140.61C142.383 140.435 142.238 140.224 142.14 139.992C142.041 139.759 141.99 139.509 141.99 139.256C141.99 139.004 142.041 138.753 142.14 138.521C142.238 138.288 142.383 138.078 142.565 137.902L143.3 137.209C143.542 136.981 143.708 136.683 143.774 136.357C143.839 136.031 143.802 135.692 143.667 135.388C143.561 135.055 143.361 134.759 143.09 134.538C142.819 134.316 142.49 134.179 142.142 134.141C141.761 134.093 141.379 134.086 140.998 134.044C140.471 133.992 139.984 133.74 139.636 133.341C139.288 132.942 139.106 132.426 139.126 131.897V129.819C139.113 129.59 139.147 129.36 139.227 129.145C139.306 128.93 139.43 128.733 139.59 128.568C139.749 128.402 139.941 128.272 140.154 128.185C140.366 128.097 140.595 128.055 140.825 128.06C141.213 128.06 141.608 128.101 142.003 128.136C142.349 128.189 142.702 128.121 143.004 127.944C143.305 127.768 143.537 127.493 143.66 127.166C143.8 126.827 143.832 126.453 143.751 126.094C143.67 125.736 143.481 125.412 143.21 125.165C142.981 124.901 142.738 124.645 142.516 124.382C142.179 124.033 141.991 123.568 141.991 123.083C141.991 122.599 142.179 122.133 142.516 121.785C143.071 121.237 143.646 120.704 144.229 120.192C144.601 119.894 145.075 119.753 145.55 119.798C146.025 119.844 146.463 120.072 146.773 120.434C147.043 120.718 147.293 121.016 147.563 121.293C147.777 121.551 148.066 121.737 148.39 121.825C148.714 121.913 149.057 121.899 149.373 121.785C149.691 121.688 149.969 121.489 150.162 121.219C150.355 120.948 150.453 120.621 150.44 120.289C150.44 119.921 150.44 119.554 150.44 119.187C150.423 118.934 150.463 118.679 150.557 118.443C150.651 118.207 150.797 117.994 150.984 117.822C151.17 117.649 151.394 117.52 151.637 117.445C151.88 117.37 152.137 117.35 152.388 117.386L154.385 117.539C154.909 117.579 155.397 117.816 155.754 118.201C156.11 118.586 156.307 119.092 156.305 119.617C156.305 119.97 156.305 120.309 156.305 120.676C156.293 121.04 156.387 121.399 156.576 121.71C156.764 122.021 157.038 122.271 157.366 122.429C157.666 122.603 158.016 122.673 158.36 122.627C158.704 122.58 159.023 122.42 159.266 122.173C159.501 121.951 159.73 121.722 159.959 121.48C160.143 121.317 160.358 121.193 160.592 121.115C160.825 121.037 161.072 121.006 161.317 121.026C161.562 121.045 161.801 121.114 162.019 121.228C162.237 121.341 162.43 121.498 162.586 121.688C163.134 122.276 163.682 122.865 164.216 123.468C164.567 123.82 164.765 124.297 164.765 124.794C164.765 125.292 164.567 125.769 164.216 126.121C163.959 126.377 163.689 126.605 163.432 126.862C163.203 127.077 163.045 127.356 162.978 127.662C162.911 127.969 162.939 128.289 163.058 128.579C163.143 128.903 163.318 129.196 163.564 129.425C163.809 129.653 164.115 129.806 164.444 129.868C164.847 129.944 165.256 129.951 165.658 129.992C166.151 130.012 166.617 130.227 166.952 130.589C167.287 130.951 167.465 131.432 167.446 131.925C167.474 132.719 167.474 133.515 167.446 134.314C167.412 135.45 166.503 136.87 165.367 136.801C165.006 136.801 163.065 136.455 162.801 137.113C162.538 137.771 162.885 138.2 163.377 138.768C163.633 139.059 163.911 139.336 164.167 139.627C164.516 139.982 164.712 140.459 164.712 140.957C164.712 141.454 164.516 141.932 164.167 142.286C163.633 142.806 163.086 143.312 162.545 143.817C162.226 144.212 161.366 145.14 160.458 145.154ZM145.685 131.44C145.681 133.559 146.464 135.603 147.881 137.179C149.299 138.755 151.25 139.75 153.359 139.973C156.825 139.973 159.834 137.611 159.834 133.248C159.841 131.197 159.07 129.221 157.675 127.716C156.28 126.212 154.366 125.293 152.319 125.144C148.055 124.798 145.691 127.062 145.685 131.44Z"
        fill="#020202" opacity="0.19" />
    </g>
    <path
      d="M160.305 144.918C159.805 144.888 159.336 144.662 159.002 144.288C158.746 144.011 158.503 143.727 158.24 143.457C158.021 143.186 157.723 142.99 157.388 142.895C157.052 142.801 156.696 142.813 156.368 142.931C156.045 143.038 155.767 143.247 155.576 143.528C155.384 143.808 155.29 144.143 155.307 144.482C155.307 144.87 155.307 145.265 155.307 145.653C155.311 145.888 155.265 146.122 155.172 146.339C155.079 146.556 154.94 146.75 154.765 146.908C154.591 147.067 154.384 147.187 154.16 147.259C153.935 147.332 153.697 147.355 153.463 147.329L151.321 147.163C150.812 147.117 150.339 146.883 149.995 146.506C149.651 146.129 149.461 145.636 149.463 145.126C149.463 144.731 149.463 144.344 149.463 143.949C149.458 143.598 149.354 143.255 149.163 142.961C148.971 142.667 148.7 142.433 148.381 142.286C148.098 142.122 147.769 142.055 147.444 142.093C147.119 142.132 146.815 142.275 146.579 142.501C146.315 142.73 146.073 142.979 145.816 143.194C145.629 143.358 145.41 143.482 145.173 143.559C144.936 143.636 144.686 143.665 144.438 143.643C144.19 143.621 143.949 143.549 143.729 143.431C143.51 143.314 143.316 143.153 143.161 142.958C142.634 142.39 142.107 141.815 141.594 141.227C141.412 141.051 141.268 140.841 141.169 140.608C141.07 140.375 141.019 140.125 141.019 139.873C141.019 139.62 141.07 139.37 141.169 139.137C141.268 138.905 141.412 138.694 141.594 138.519C141.837 138.29 142.086 138.068 142.329 137.826C142.573 137.597 142.739 137.298 142.805 136.97C142.871 136.643 142.833 136.302 142.696 135.997C142.59 135.665 142.39 135.371 142.119 135.15C141.848 134.93 141.519 134.794 141.171 134.758C140.79 134.709 140.409 134.702 140.027 134.661C139.5 134.608 139.013 134.357 138.665 133.958C138.318 133.559 138.135 133.042 138.155 132.513C138.155 131.821 138.155 131.128 138.155 130.436C138.141 130.207 138.174 129.977 138.253 129.762C138.332 129.547 138.455 129.35 138.614 129.184C138.773 129.019 138.965 128.888 139.177 128.801C139.389 128.714 139.617 128.671 139.847 128.676C140.235 128.676 140.63 128.718 141.026 128.746C141.37 128.799 141.723 128.732 142.024 128.557C142.326 128.382 142.558 128.108 142.682 127.783C142.822 127.443 142.854 127.068 142.774 126.709C142.695 126.35 142.508 126.024 142.239 125.774C142.003 125.518 141.76 125.262 141.545 124.992C141.209 124.643 141.021 124.177 141.021 123.693C141.021 123.208 141.209 122.743 141.545 122.394C142.107 121.847 142.676 121.321 143.265 120.808C143.637 120.509 144.111 120.367 144.586 120.412C145.062 120.457 145.501 120.686 145.809 121.05C146.073 121.334 146.322 121.632 146.593 121.909C146.808 122.166 147.097 122.351 147.421 122.438C147.744 122.524 148.087 122.509 148.402 122.394C148.722 122.299 149.001 122.101 149.195 121.83C149.39 121.559 149.489 121.231 149.477 120.898C149.477 120.538 149.477 120.164 149.477 119.804C149.461 119.549 149.502 119.295 149.596 119.058C149.691 118.822 149.838 118.609 150.025 118.436C150.212 118.263 150.435 118.134 150.678 118.058C150.922 117.982 151.179 117.961 151.432 117.996L153.421 118.155C153.945 118.196 154.434 118.432 154.79 118.817C155.146 119.203 155.343 119.709 155.342 120.233C155.342 120.593 155.342 120.926 155.342 121.3C155.326 121.662 155.417 122.021 155.605 122.331C155.792 122.642 156.067 122.89 156.395 123.045C156.695 123.221 157.044 123.291 157.388 123.246C157.732 123.201 158.051 123.043 158.295 122.796C158.531 122.574 158.759 122.346 158.988 122.103C159.172 121.941 159.387 121.818 159.62 121.741C159.852 121.663 160.098 121.633 160.343 121.653C160.587 121.672 160.825 121.74 161.043 121.854C161.26 121.967 161.453 122.122 161.609 122.311C162.163 122.9 162.704 123.495 163.238 124.098C163.588 124.451 163.785 124.928 163.785 125.424C163.785 125.921 163.588 126.398 163.238 126.751C162.975 127 162.704 127.236 162.448 127.485C162.221 127.703 162.064 127.983 161.997 128.29C161.93 128.597 161.957 128.918 162.073 129.21C162.159 129.533 162.335 129.826 162.58 130.054C162.826 130.282 163.131 130.436 163.46 130.498C163.864 130.558 164.272 130.597 164.68 130.616C165.174 130.639 165.638 130.856 165.973 131.219C166.307 131.582 166.486 132.062 166.469 132.555C166.469 133.349 166.469 134.146 166.469 134.945C166.484 135.184 166.446 135.424 166.356 135.646C166.266 135.869 166.126 136.068 165.948 136.229C165.77 136.391 165.558 136.509 165.328 136.577C165.097 136.645 164.855 136.66 164.618 136.621C164.264 136.621 163.924 136.551 163.55 136.545C163.226 136.523 162.904 136.61 162.635 136.792C162.366 136.974 162.166 137.24 162.066 137.549C161.938 137.857 161.904 138.196 161.967 138.523C162.029 138.851 162.187 139.152 162.42 139.391C162.676 139.689 162.954 139.966 163.21 140.257C163.561 140.611 163.757 141.089 163.757 141.587C163.757 142.085 163.561 142.563 163.21 142.917C162.676 143.436 162.129 143.942 161.588 144.447C161.42 144.612 161.218 144.739 160.997 144.82C160.776 144.901 160.54 144.935 160.305 144.918ZM144.7 132.042C144.691 134.165 145.471 136.216 146.889 137.798C148.307 139.379 150.261 140.379 152.374 140.603C153.373 140.686 154.379 140.556 155.324 140.224C156.27 139.892 157.135 139.364 157.862 138.675C158.59 137.986 159.164 137.151 159.547 136.226C159.929 135.3 160.112 134.304 160.084 133.303C160.073 131.192 159.285 129.16 157.871 127.591C156.457 126.023 154.516 125.029 152.416 124.798C151.42 124.709 150.417 124.833 149.472 125.159C148.527 125.486 147.661 126.008 146.933 126.692C146.204 127.376 145.628 128.207 145.244 129.129C144.859 130.051 144.674 131.044 144.7 132.042Z"
      fill="#FAE50A" />
    <path d="M236.87 118.128L175.821 112.503V69.3736L236.87 74.9977V118.128Z" fill="white" />
    <path d="M144.7 92.4865L83.6504 86.8624V43.7325L144.7 49.3635V92.4865Z" fill="white" />
    <path d="M216.35 88.9333L155.3 83.3023V40.1793L216.35 45.8034V88.9333Z" stroke="white" stroke-miterlimit="10"
      stroke-width="1.06" />
    <path
      d="M49.9158 95.1254C49.5949 94.5256 49.1553 93.9971 48.6238 93.572C48.0923 93.147 47.4799 92.8342 46.8238 92.6528C44.1616 91.9601 41.7629 93.6363 40.4041 95.8042C39.6068 97.0717 39.0799 98.5747 37.9291 99.5236C36.8875 100.261 35.709 100.784 34.4627 101.061C31.5579 101.962 28.7155 103.368 26.7258 105.667C26.1091 106.302 25.6921 107.104 25.5264 107.974C25.367 109.234 26.0741 110.509 25.8315 111.755C25.5611 113.141 24.2231 114.048 23.4605 115.219C22.9384 116.097 22.6857 117.109 22.7338 118.13C22.7819 119.151 23.1285 120.135 23.7309 120.96C24.3558 121.769 25.1668 122.414 26.095 122.842C27.0231 123.271 28.041 123.468 29.0621 123.419C31.12 123.297 33.0537 122.395 34.4697 120.898C37.4646 117.83 38.248 112.857 41.8114 110.467C42.782 109.816 43.9744 109.324 44.4528 108.265C44.7925 107.517 44.6816 106.651 44.8202 105.847C44.9389 105.159 45.2318 104.513 45.6711 103.97C46.1103 103.427 46.6814 103.005 47.3299 102.744C49.4097 101.948 51.6143 102.654 52.4324 99.9738C52.6122 99.3988 52.6043 98.7816 52.4099 98.2113C52.2155 97.6411 51.8446 97.1474 51.3509 96.8016C51.105 96.6755 50.8727 96.5246 50.6576 96.3514C50.4084 96.0656 50.2176 95.7338 50.096 95.3748C49.999 95.2847 49.9574 95.2086 49.9158 95.1254Z"
      fill="#FC9D2D" />
    <path d="M67.4068 109.29L67.3306 109.227L67.5663 109.304L67.4068 109.29Z" fill="white" />
    <path
      d="M67.0326 159.491C67.1151 160.453 67.4086 161.385 67.8923 162.22C68.4656 162.983 69.2556 163.555 70.1593 163.862C72.107 164.587 74.2596 164.535 76.1699 163.716C76.4337 163.629 76.659 163.452 76.8077 163.218C76.8859 163.027 76.9029 162.816 76.8563 162.615C76.5722 161.542 75.894 160.614 74.9567 160.018C74.0281 159.427 73.2036 158.688 72.5164 157.829C71.3794 156.097 71.4557 151.131 68.0933 152.336C65.2786 153.348 66.6998 157.462 67.0326 159.491Z"
      fill="#FFBBAB" />
    <path
      d="M47.8427 136.981C50.4876 136.387 53.1663 135.954 55.8639 135.686C60.592 135.222 64.0514 136.378 66.36 140.7C68.4398 144.634 70.6098 148.61 71.7121 152.932C71.9686 153.95 72.1558 155.093 71.622 156C70.8386 157.337 68.8489 157.441 67.4623 156.638C66.0758 155.834 65.3271 154.421 64.5298 153.085C63.1432 150.827 60.7792 145.258 58.02 145.279C54.3387 145.279 50.7059 147.869 47.1009 148.541C46.9184 148.6 46.7256 148.621 46.5346 148.602C46.3437 148.583 46.1588 148.524 45.9917 148.43C45.756 148.25 43.3364 148.548 43.2186 148.257C42.4074 145.486 44.2516 141.989 44.1337 139.086C44.0932 138.792 44.1365 138.492 44.2585 138.221C44.5264 137.872 44.919 137.642 45.3539 137.577C46.2204 137.369 47.0316 137.14 47.8427 136.981Z"
      fill="#797990" />
    <path
      d="M66.9564 162.864C66.9564 162.864 66.6167 164.132 67.303 164.762C67.9894 165.393 74.6933 168.502 78.4994 164.873C82.3054 161.244 72.3847 162.061 72.3847 162.061L66.9564 162.864Z"
      fill="#FAE50A" />
    <path
      d="M66.8524 159.997C67.0321 159.881 67.2472 159.833 67.4593 159.86C67.6714 159.888 67.8667 159.991 68.0102 160.149C68.4742 160.563 69.0355 160.852 69.6416 160.99C70.2477 161.128 70.879 161.11 71.4765 160.939C72.8007 160.447 73.1543 158.806 73.8337 158.716C74.5131 158.625 78.5063 161.257 78.8738 162.553C79.2412 163.848 77.4872 165.053 75.4837 165.434C73.4801 165.815 68.648 164.963 67.6358 164C67.1918 163.446 66.8887 162.792 66.7523 162.095C66.6159 161.398 66.6503 160.678 66.8524 159.997Z"
      fill="white" />
    <path
      d="M57.9091 169.846C57.6246 170.767 57.5442 171.738 57.6734 172.693C57.9127 173.616 58.4278 174.445 59.1501 175.069C60.6759 176.478 62.6876 177.245 64.7656 177.209C65.0418 177.232 65.3171 177.156 65.5421 176.994C65.6863 176.846 65.7829 176.657 65.8194 176.454C65.9601 175.352 65.6831 174.238 65.0429 173.33C64.421 172.43 63.9525 171.433 63.6564 170.379C63.2612 168.35 65.2162 163.779 61.6459 163.626C58.6232 163.46 58.3806 167.837 57.9091 169.846Z"
      fill="#FFBBAB" />
    <path
      d="M48.7024 141.746C51.374 142.197 54.0156 142.81 56.6126 143.582C61.1674 144.967 63.9197 147.35 64.4258 152.205C64.8903 156.638 65.3548 161.133 64.7309 165.545C64.5853 166.584 64.3218 167.713 63.4899 168.35C62.2559 169.292 60.3494 168.62 59.4204 167.373C58.4914 166.127 58.2834 164.513 58.0338 162.975C57.6456 160.371 57.5347 154.31 54.9765 153.278C50.6297 151.533 45.6173 153.729 41.4507 151.422C39.9515 150.655 38.5541 149.703 37.2911 148.589C36.0307 147.464 35.1412 145.984 34.7399 144.344C34.5769 143.478 34.5419 142.594 34.6359 141.718C34.678 140.993 34.7941 140.273 34.9825 139.571C35.2321 138.761 35.3638 138.879 36.1957 138.996C37.5823 139.197 38.9688 139.495 40.3554 139.821C43.1839 140.479 45.9085 141.296 48.7024 141.746Z"
      fill="#797990" />
    <path
      d="M56.5643 172.935C56.5643 172.935 55.767 173.981 56.1622 174.826C56.5573 175.671 61.5766 181.06 66.4781 179.169C71.3795 177.278 61.8955 174.244 61.8955 174.244L56.5643 172.935Z"
      fill="#FAE50A" />
    <path
      d="M57.5487 170.262C57.7592 170.221 57.9772 170.258 58.163 170.365C58.3487 170.472 58.4899 170.641 58.5609 170.843C58.8339 171.403 59.2451 171.885 59.7557 172.242C60.2663 172.6 60.8595 172.822 61.4796 172.887C62.8661 172.935 63.8436 171.55 64.5022 171.723C65.1608 171.896 67.8646 175.879 67.7121 177.188C67.5596 178.497 65.5005 178.982 63.4831 178.573C61.4657 178.165 57.3338 175.546 56.7653 174.272C56.5614 173.59 56.5261 172.869 56.6626 172.17C56.799 171.472 57.1031 170.817 57.5487 170.262Z"
      fill="white" />
    <path
      d="M62.1173 126.301C61.9232 127.381 61.4587 128.295 60.4673 128.496C60.3843 128.503 60.3008 128.503 60.2178 128.496C58.4291 128.635 56.2938 127.035 54.838 125.684C54.2328 125.123 53.6589 124.528 53.1187 123.904L54.5052 112.226L61.9579 121.923C62.2495 123.364 62.3033 124.843 62.1173 126.301Z"
      fill="white" />
    <path
      d="M69.5769 124.133C68.2704 125.575 66.7249 126.782 65.0082 127.7C63.7737 128.338 62.3978 128.655 61.008 128.621C60.8259 128.614 60.6469 128.572 60.4811 128.496C60.1923 128.373 59.9497 128.162 59.7879 127.894C59.2938 127.143 59.051 126.256 59.0946 125.359C59.2748 123.018 61.9647 121.972 61.9647 121.972C61.9647 121.972 67.9269 120.829 68.5786 121.21C68.9321 121.418 69.1886 122.263 69.355 122.997C69.4937 123.606 69.5769 124.133 69.5769 124.133Z"
      fill="white" />
    <path
      d="M69.5769 124.133C68.2705 125.575 66.725 126.782 65.0083 127.7C63.7737 128.338 62.3978 128.655 61.0081 128.621C60.8259 128.614 60.6469 128.572 60.4812 128.496C60.3981 128.503 60.3146 128.503 60.2316 128.496C58.443 128.635 56.3077 127.035 54.8518 125.684L55.8155 122.221C56.7304 123.428 57.8383 124.477 59.0946 125.324C59.979 125.94 61.0321 126.269 62.1104 126.266C62.4023 126.252 62.6912 126.201 62.97 126.114C65.2243 125.34 67.3701 124.281 69.3551 122.962C69.4937 123.606 69.5769 124.133 69.5769 124.133Z"
      fill="#020202" opacity="0.1" />
    <path
      d="M68.2734 118.121C67.8265 118.444 67.492 118.9 67.3167 119.423C67.2717 119.693 67.2717 119.97 67.3167 120.24C67.3361 120.49 67.3873 120.737 67.4692 120.974C67.6043 121.254 67.7821 121.511 67.9961 121.736L68.4814 122.297C68.5373 122.373 68.6081 122.437 68.6894 122.484C68.78 122.517 68.8787 122.52 68.971 122.492C69.0633 122.465 69.1444 122.409 69.2024 122.332C69.3171 122.181 69.3954 122.005 69.4312 121.819C69.7154 120.85 70.5058 119.298 70.3394 118.28C70.1522 117.054 68.8835 117.573 68.2734 118.121Z"
      fill="#FFBBAB" />
    <path
      d="M54.9071 125.691C54.8378 126.231 54.8447 126.799 54.7754 127.346C54.4288 130.366 53.3403 133.386 53.888 136.455C54.1127 137.129 54.1127 137.858 53.888 138.532C53.5686 139.041 53.0763 139.417 52.5015 139.592C49.666 140.728 46.5393 140.804 43.4889 140.867C41.1942 140.915 37.9427 141.199 35.9669 139.731C35.1419 139.107 34.9547 138.11 34.7884 137.113C34.3577 133.899 34.267 130.649 34.518 127.416C34.518 126.993 34.5596 126.571 34.5873 126.148C34.7629 123.239 35.0495 120.344 35.447 117.463C35.7451 115.385 36.1818 113.12 37.7417 111.7C39.8215 109.816 43.5097 108.839 46.2482 108.666C47.137 108.595 48.0314 108.654 48.9034 108.839C50.13 109.188 51.2881 109.744 52.3282 110.481C53.583 111.291 54.6992 111.991 55.1914 113.383C55.7254 114.985 56.0311 116.655 56.0996 118.342C56.1592 119.925 55.9982 121.507 55.6212 123.045C55.4548 123.8 55.1637 124.541 54.9973 125.289C54.9487 125.414 54.9279 125.553 54.9071 125.691Z"
      fill="white" />
    <path
      d="M40.5358 141.296C39.6276 141.448 37.7072 140.402 37.0694 140.209C36.6812 140.084 36.3761 139.841 35.9532 139.696C34.0121 138.962 34.4488 133.317 34.435 131.786C34.3934 127.734 34.0953 123.475 34.5251 119.492C34.6231 117.936 34.9889 116.408 35.6066 114.976C35.9191 114.262 36.3857 113.627 36.973 113.114C37.5603 112.602 38.2537 112.225 39.0036 112.012C39.2949 111.922 39.6067 111.922 39.898 112.012C41.0835 112.469 41.0973 114.505 41.1875 115.475C41.3261 117.006 41.6727 118.619 42.8582 119.693C45.7492 122.318 51.2746 121.293 54.7548 121.141C55.0698 121.096 55.3908 121.147 55.6769 121.286C55.8781 121.447 56.02 121.671 56.0802 121.922C56.1405 122.173 56.1156 122.436 56.0096 122.671C55.7923 123.13 55.5225 123.563 55.2054 123.96C54.1933 125.504 54.1794 127.485 53.5 129.203C52.5835 131.245 51.0094 132.923 49.0284 133.968C47.0571 134.992 45.0107 135.865 42.9068 136.579C42.4338 136.729 41.9921 136.964 41.6034 137.272C41.1311 137.733 40.847 138.352 40.8062 139.01C40.7507 139.433 41.132 140.77 40.9379 141.047C40.8942 141.116 40.8352 141.174 40.7656 141.218C40.6959 141.261 40.6173 141.288 40.5358 141.296Z"
      fill="#020202" opacity="0.1" />
    <path d="M38.0978 150.682L48.4402 156.953L79.381 106.011L69.0386 99.7411L38.0978 150.682Z" fill="#FAE50A" />
    <path
      d="M47.3422 146.424L47.9586 146.798C49.0093 147.435 50.378 147.1 51.0156 146.05L71.0913 112.997C71.7289 111.947 71.394 110.58 70.3433 109.943L69.7269 109.569C68.6761 108.932 67.3075 109.267 66.6699 110.317L46.5941 143.37C45.9565 144.42 46.2914 145.787 47.3422 146.424Z"
      fill="url(#paint3_linear)" />
    <path
      d="M50.9278 106.665C50.5648 106.974 50.1017 107.142 49.6244 107.136C49.2243 107.131 48.8253 107.092 48.432 107.018L48.2102 106.976C48.1584 106.959 48.1024 106.959 48.0507 106.976C48.0234 106.995 48.0006 107.02 47.9838 107.049C47.967 107.077 47.9567 107.109 47.9536 107.143C47.7724 107.92 47.6634 108.713 47.6278 109.511C47.6278 109.657 47.6278 109.802 47.6278 109.948C47.638 110.102 47.6043 110.255 47.5307 110.391C47.4663 110.465 47.3878 110.526 47.2998 110.57C47.2117 110.614 47.1159 110.64 47.0177 110.647C46.6575 110.721 46.2882 110.739 45.9223 110.703C45.1557 110.532 44.442 110.178 43.8425 109.671C44.0572 108.324 44.1477 106.961 44.1129 105.598C44.0644 103.839 43.8217 102.052 44.2169 100.334C44.2663 99.9225 44.4044 99.5265 44.6217 99.1735C44.839 98.8204 45.1303 98.5186 45.4756 98.2888C45.8209 98.0591 46.2119 97.9068 46.6218 97.8426C47.0316 97.7784 47.4505 97.8037 47.8497 97.9167C49.1001 98.0429 50.2883 98.5236 51.2744 99.302C51.4189 99.4458 51.5298 99.6197 51.5993 99.8112C51.6688 100.003 51.6952 100.207 51.6765 100.41C51.7251 101.103 51.7528 101.795 51.7458 102.488C51.7389 103.181 51.6904 104.081 51.6072 104.878C51.6057 105.536 51.3641 106.171 50.9278 106.665Z"
      fill="#FFBBAB" />
    <path
      d="M48.432 107.032L48.2101 106.99C48.1584 106.973 48.1024 106.973 48.0507 106.99C48.0234 107.009 48.0005 107.034 47.9838 107.063C47.967 107.091 47.9567 107.123 47.9536 107.156C47.7724 107.934 47.6633 108.727 47.6278 109.525C46.9564 109.219 46.4113 108.69 46.0843 108.029C45.7572 107.368 45.6682 106.615 45.8322 105.896C46.6526 106.357 47.5193 106.731 48.4181 107.011L48.432 107.032Z"
      fill="#E0A194" />
    <path
      d="M58.9907 115.094L59.2541 114.782C59.3651 114.651 59.5384 114.498 59.6909 114.581C59.8434 114.664 59.8365 114.893 59.9682 114.99C60.0391 115.034 60.1205 115.058 60.2039 115.059C60.9425 115.11 61.6753 115.224 62.3947 115.399C62.6124 115.44 62.8147 115.539 62.9797 115.687C63.1447 115.835 63.266 116.025 63.3306 116.237C63.3651 116.54 63.3147 116.847 63.185 117.123C62.9774 117.85 62.5886 118.513 62.0549 119.049C61.5823 119.395 61.0483 119.649 60.4812 119.797C59.9924 119.923 59.5251 120.122 59.0947 120.386C58.5331 120.663 58.0825 121.141 57.5279 121.445C57.222 121.646 56.8533 121.728 56.491 121.677C56.1287 121.626 55.7975 121.444 55.5594 121.166C55.3214 120.889 55.1929 120.534 55.1979 120.168C55.2029 119.803 55.3412 119.451 55.5867 119.18L56.5088 118.086L58.9907 115.094Z"
      fill="#FFBBAB" />
    <path
      d="M43.6122 115.315C43.0844 112.975 40.7596 111.506 38.4195 112.033C36.0794 112.559 34.6102 114.883 35.138 117.223L37.7229 128.683C38.2507 131.022 40.5756 132.492 42.9157 131.965C45.2557 131.438 46.7249 129.114 46.1971 126.775L43.6122 115.315Z"
      fill="white" />
    <path
      d="M45.2569 121.799L55.3856 117.747L58.547 122.332C58.547 122.332 45.1321 132.957 41.6588 132.029C38.1855 131.101 40.1267 127.568 40.1267 127.568C40.1267 127.568 39.274 123.433 45.2569 121.799Z"
      fill="white" />
    <path
      d="M48.5222 100.59C47.7873 100.819 46.9762 100.791 46.2621 101.075C45.548 101.359 44.9241 102.169 45.2499 102.869C44.9865 102.62 44.4873 102.869 44.418 103.208C44.4039 103.391 44.4437 103.573 44.5324 103.733C44.6211 103.893 44.7549 104.024 44.9171 104.109L44.0089 105.494C43.9413 105.628 43.8351 105.739 43.7039 105.813C43.5695 105.861 43.4223 105.861 43.2879 105.813C42.9777 105.721 42.692 105.56 42.4521 105.343C42.2121 105.126 42.0239 104.858 41.9014 104.559C41.6581 103.955 41.5243 103.312 41.5062 102.661C41.4231 101.434 41.4231 100.203 41.5062 98.9765C41.5098 98.3831 41.625 97.7957 41.8459 97.2449C42.2034 96.6069 42.7347 96.0834 43.3781 95.735C44.75 94.8743 46.4 94.5718 47.9883 94.89C49.16 95.167 51.0249 96.2406 51.2121 97.5912C51.3992 98.9418 49.5759 100.265 48.5222 100.59Z"
      fill="#FC9D2D" />
    <path
      d="M84.2811 105.529C82.8106 106.537 81.1164 107.171 79.3451 107.377C77.5738 107.583 75.779 107.355 74.116 106.711C72.4531 106.068 70.9723 105.029 69.8019 103.685C68.6315 102.341 67.8067 100.732 67.3992 98.9976C66.9916 97.2632 67.0135 95.4556 67.463 93.7316C67.9124 92.0075 68.7759 90.4189 69.9785 89.1035C71.1812 87.7881 72.6868 86.7854 74.3648 86.1825C76.0428 85.5796 77.8427 85.3945 79.6084 85.6434L77.0087 89.9446L74.083 94.793L81.7853 99.4544L84.7386 94.5713L87.2275 90.4641C88.8092 92.8603 89.3867 95.7809 88.8357 98.5979C88.2847 101.415 86.6493 103.904 84.2811 105.529Z"
      fill="#FAE50A" />
    <path
      d="M45.2083 167.491C42.8758 168.749 40.1635 169.111 37.5823 168.509L44.3764 159.658L37.2218 154.179L30.407 163.065L30.3654 162.996C29.3423 161.085 28.9095 158.914 29.1217 156.757C29.3338 154.6 30.1813 152.555 31.5571 150.879C32.9329 149.203 34.7751 147.973 36.8508 147.344C38.9265 146.714 41.1424 146.714 43.2183 147.342C45.2942 147.971 47.137 149.201 48.5134 150.876C49.8899 152.551 50.7382 154.596 50.9513 156.752C51.1643 158.909 50.7323 161.081 49.7101 162.992C48.6879 164.904 47.1212 166.469 45.2083 167.491Z"
      fill="#FAE50A" />
  </g>

</svg>
