<svg fill="none" height="218" viewBox="0 0 276 218" width="276" xmlns="http://www.w3.org/2000/svg">
  <g clip-path="url(#clip0)">
    <path
      d="M40.2376 15.1095C27.0971 22.5559 15.4556 33.2581 8.81038 46.8319C2.16519 60.4058 1.03268 75.499 0.333188 90.3919C-0.366305 107.088 -0.283033 123.784 3.79734 139.979C7.57794 154.889 14.6895 168.746 22.667 181.886C28.5294 191.536 35.1413 201.153 44.6011 207.314C51.5391 211.507 59.2085 214.34 67.2014 215.662C94.1971 220.9 122.162 217.062 146.76 204.743C165.08 195.527 181.002 181.786 200.338 175.258C217.309 169.531 236.362 169.514 251.651 160.231C270.704 148.544 279.431 123.6 274.768 101.712C270.104 79.8233 253.7 61.6413 233.814 51.4233C222.539 45.6465 210.348 42.3073 198.989 36.9145C187.631 31.5217 177.255 24.142 166.18 18.1482C126.608 -3.30623 80.1087 -7.49693 40.2376 15.1095Z"
      fill="#FAE50A" opacity="0.18" />
    <path
      d="M175.906 75.6998L178.121 76.6348C178.93 76.8559 179.625 77.3746 180.069 78.0873C180.301 78.8397 180.259 79.6498 179.953 80.3747C179.653 81.3597 179.303 82.3448 178.92 83.3132C178.421 84.5988 177.838 85.8677 177.455 87.1866C176.705 90.5232 176.569 93.9691 177.055 97.3545C177.055 98.4565 175.656 99.0241 174.573 99.1744C172.532 99.6048 170.414 99.4955 168.428 98.8572C168.244 98.8055 168.073 98.7144 167.928 98.59C167.748 98.3579 167.664 98.0646 167.695 97.7719C167.578 95.9521 167.578 94.0654 167.329 92.3958C167.229 91.4846 167.045 90.5847 166.779 89.7078C166.59 88.8476 166.446 87.9782 166.346 87.1032C166.196 86.4019 165.98 85.7174 165.863 85.0162C165.719 84.3089 165.771 83.5756 166.013 82.8958C166.313 82.1611 166.729 81.4766 167.096 80.7754C167.487 80.0126 167.832 79.2264 168.128 78.4212C168.288 77.8338 168.529 77.2718 168.844 76.7516C169.242 76.2777 169.74 75.8974 170.301 75.6377C170.862 75.378 171.474 75.2453 172.092 75.249C173.381 75.1206 174.682 75.2744 175.906 75.6998Z"
      fill="#FFBBAB" />
    <path
      d="M162.266 67.0679C161.635 66.2737 161.124 65.3904 160.75 64.4467C160.331 63.2394 160.074 61.9818 159.984 60.7067C159.916 60.2486 159.95 59.7811 160.084 59.3377C160.301 58.7366 160.834 58.2858 161 57.6681C161.024 57.6035 161.024 57.5323 161 57.4677C161 57.4677 160.917 57.3341 160.784 57.3341L160.084 57.1505C160.201 56.58 160.107 55.9862 159.818 55.4809C159.733 55.2969 159.596 55.1419 159.425 55.0351C159.253 54.9282 159.054 54.8743 158.852 54.8798C158.419 54.8798 158.202 55.4308 157.836 55.6812C157.469 55.9317 157.07 55.9651 156.753 56.2155C156.417 56.5793 156.227 57.0552 156.22 57.5512C156.197 58.7527 156.378 59.9495 156.753 61.0908C156.992 62.4232 157.315 63.7392 157.719 65.031C159 69.0146 161.048 72.7074 163.748 75.9001C164.781 77.1189 168.744 81.9274 170.31 80.6919C172.525 79.0223 171.076 76.2674 169.544 74.9485C166.806 72.6291 164.362 69.9826 162.266 67.0679Z"
      fill="#FFBBAB" />
    <path
      d="M171.576 74.8984C170.826 76.0504 170.093 77.2358 169.411 78.4379C169.28 78.6164 169.187 78.8189 169.135 79.0339C169.084 79.2488 169.076 79.4719 169.111 79.6901C169.235 79.9736 169.461 80.2001 169.744 80.3246C170.325 80.5851 170.963 80.6942 171.598 80.6416C172.232 80.5891 172.844 80.3767 173.374 80.024C174.421 79.2857 175.348 78.3903 176.122 77.3694C176.541 76.8048 177.06 76.3234 177.655 75.9502C177.957 75.7693 178.302 75.6738 178.654 75.6738C179.006 75.6738 179.351 75.7693 179.653 75.9502C179.798 76.0431 179.922 76.1658 180.016 76.3102C180.11 76.4546 180.173 76.6174 180.2 76.7879C180.227 76.9583 180.217 77.1326 180.172 77.299C180.126 77.4654 180.046 77.6203 179.936 77.7534C179.936 77.2191 179.287 76.8852 178.771 77.0188C178.269 77.2253 177.852 77.5961 177.588 78.0706C177.187 78.6437 176.82 79.2403 176.489 79.8571C176.222 80.3089 176.026 80.7987 175.906 81.3096C175.872 81.9428 175.965 82.5764 176.18 83.1729C176.394 83.7694 176.726 84.3167 177.155 84.7824C177.464 85.152 177.712 85.5692 177.888 86.0179C178.015 86.7384 177.958 87.4795 177.721 88.1717C177.113 91.1138 176.962 94.1323 177.272 97.1208C177.35 97.4069 177.359 97.7076 177.298 97.9979C177.237 98.2882 177.108 98.5598 176.922 98.7904C176.6 99.0425 176.197 99.1673 175.789 99.141C173.874 99.141 171.975 98.7069 170.044 98.757C168.86 98.8848 167.67 98.9461 166.479 98.9406C166.392 98.9512 166.304 98.9394 166.223 98.9063C166.142 98.8732 166.07 98.8199 166.015 98.7514C165.96 98.6829 165.923 98.6014 165.908 98.5148C165.894 98.4281 165.901 98.3391 165.93 98.2561C166.463 94.9434 166.547 91.5737 166.18 88.2385C165.779 86.7259 165.534 85.1763 165.447 83.6137C165.431 83.2702 165.494 82.9276 165.63 82.6119C165.784 82.3073 165.98 82.0262 166.213 81.7771C167.464 80.2639 168.363 78.49 168.844 76.5847"
      fill="white" />
    <path
      d="M176.422 90.3422C176.435 90.6208 176.382 90.8984 176.27 91.1534C176.157 91.4083 175.987 91.6336 175.773 91.8114C175.634 91.8737 175.501 91.9463 175.373 92.0285C175.123 92.2622 175.156 92.6629 175.106 92.9969C174.893 93.6099 174.565 94.1765 174.14 94.6665C173.939 94.9269 173.83 95.247 173.83 95.5764C173.83 95.9058 173.939 96.2259 174.14 96.4863C174.44 96.7868 174.94 96.8369 175.19 97.1876C175.44 97.5382 175.19 98.6735 175.706 99.0241C175.874 99.0956 176.062 99.1046 176.236 99.0495C176.41 98.9944 176.559 98.8788 176.655 98.7236C176.834 98.4075 176.931 98.0517 176.938 97.6884C177.327 93.9374 177.682 90.1697 178.004 86.3852C178.049 86.1871 178.043 85.981 177.988 85.7857C177.933 85.5903 177.829 85.4119 177.688 85.2666C177.438 84.916 177.105 84.2481 176.739 84.0645C176.322 84.6822 176.639 86.0179 176.639 86.7358C176.572 87.9547 176.522 89.1568 176.422 90.3422Z"
      fill="#020202" opacity="0.1" />
    <path
      d="M167.296 68.3869C167.077 68.669 166.934 69.0023 166.879 69.3553C166.921 69.6044 167.011 69.8428 167.146 70.0565C167.385 70.5828 167.526 71.1487 167.562 71.7261C167.548 72.1598 167.657 72.5886 167.878 72.9616C168.072 73.1466 168.303 73.2884 168.556 73.3776C168.809 73.4668 169.077 73.5014 169.344 73.4792H170.576C170.724 73.4379 170.879 73.4379 171.026 73.4792C171.162 73.5493 171.273 73.6602 171.343 73.7964C171.725 74.6981 171.956 75.6573 172.025 76.6348C172.06 76.8005 172.134 76.9553 172.242 77.0855C172.327 77.2072 172.442 77.3049 172.575 77.3694C173.442 77.7117 174.406 77.7117 175.273 77.3694C175.496 77.3018 175.69 77.1606 175.823 76.9687C175.908 76.7255 175.908 76.4605 175.823 76.2174C175.728 75.5452 175.583 74.881 175.39 74.2305C175.042 73.3769 174.861 72.4644 174.857 71.5425C174.857 70.7244 175.306 69.973 175.44 69.1716C175.537 68.3254 175.361 67.4702 174.939 66.7312C174.516 65.9922 173.869 65.4081 173.091 65.0644C172.43 64.8025 171.718 64.6935 171.009 64.7455C170.299 64.7975 169.611 65.0093 168.994 65.3649C168.545 65.5987 168.178 65.7156 167.962 66.1997C167.745 66.6839 167.695 67.7024 167.296 68.3869Z"
      fill="#FFBBAB" />
    <path
      d="M167.412 63.4115C167.339 63.105 167.3 62.7915 167.295 62.4765C167.295 61.408 167.912 60.1892 168.961 60.1558C169.71 60.1558 170.377 60.7234 171.143 60.7234C171.458 60.6807 171.77 60.6137 172.075 60.5231C172.875 60.3394 173.707 60.3394 174.507 60.5231C176.236 60.8297 177.777 61.8 178.804 63.2278C179.315 63.956 179.602 64.8177 179.632 65.7074C179.662 66.597 179.432 67.4761 178.97 68.2367C178.421 69.0715 177.571 69.6725 176.988 70.4906C176.709 71.0014 176.403 71.4974 176.072 71.9766C175.773 72.3272 175.073 72.8948 174.573 72.6444C174.074 72.394 174.041 71.5759 173.691 71.2252C174.034 70.9537 174.362 70.6639 174.673 70.357C174.825 70.2014 174.93 70.0064 174.977 69.794C175.024 69.5817 175.011 69.3603 174.94 69.1549C174.74 68.7542 174.057 68.6708 173.891 69.1549C173.942 68.5927 173.864 68.026 173.662 67.499C173.46 66.972 173.139 66.4989 172.725 66.1163C172.605 65.9673 172.458 65.8426 172.292 65.7489C172.11 65.7154 171.924 65.7154 171.742 65.7489C171.226 65.7489 170.726 65.7489 170.21 65.7489C169.327 65.7489 168.894 65.9994 168.261 65.2481C167.827 64.7181 167.535 64.086 167.412 63.4115Z"
      fill="#FC9D2D" />
    <path
      d="M172.408 73.6462C172.546 73.6337 172.684 73.6756 172.792 73.763C172.88 73.8774 172.927 74.0188 172.925 74.1637C172.991 74.9024 172.991 75.6456 172.925 76.3843C172.906 76.5805 172.856 76.7723 172.775 76.952C172.727 77.0392 172.657 77.1127 172.572 77.1653C172.488 77.2179 172.391 77.2479 172.292 77.2525C172.075 77.2525 171.892 77.0688 171.659 77.0188C171.537 76.9924 171.411 76.9938 171.29 77.0226C171.169 77.0515 171.056 77.1073 170.96 77.1857C170.772 77.3487 170.604 77.5337 170.46 77.7367C170.091 78.2032 169.684 78.6387 169.244 79.039C169.541 78.0249 169.99 77.0621 170.577 76.184C170.71 75.9304 170.92 75.7258 171.176 75.5996C171.376 75.5996 171.626 75.5996 171.759 75.3825C171.892 75.1655 171.759 74.7481 171.609 74.4643C171.459 74.1804 171.076 73.7797 171.309 73.5794C171.542 73.379 172.209 73.6295 172.408 73.6462Z"
      fill="#E0A194" />
    <path
      d="M188.463 69.7059C189.121 69.0887 189.733 68.4247 190.295 67.7191C191.904 65.7047 192.784 63.2035 192.793 60.6233C192.735 60.3424 192.735 60.0526 192.793 59.7718C192.828 59.6352 192.901 59.5118 193.005 59.4168C193.108 59.3218 193.238 59.2594 193.376 59.2375C193.498 59.2542 193.621 59.2542 193.743 59.2375C193.926 59.2375 194.009 58.9871 194.159 58.8535C194.284 58.7749 194.428 58.7333 194.576 58.7333C194.723 58.7333 194.867 58.7749 194.992 58.8535C195.247 59.0147 195.467 59.2246 195.641 59.4712C195.908 59.8385 196.174 60.2226 196.408 60.6066C196.618 60.9007 196.745 61.2472 196.774 61.6083C196.704 62.1907 196.411 62.7232 195.958 63.0943C195.442 63.0943 195.042 64.48 194.909 64.7639C194.642 65.5152 194.342 66.2665 194.009 66.9844C192.024 71.3251 189.086 75.1604 185.416 78.2042C184.183 79.2226 179.52 83.213 178.121 81.7938C176.206 79.7569 178.121 77.3026 179.786 76.2507C182.941 74.4428 185.856 72.2439 188.463 69.7059Z"
      fill="#FFBBAB" />
    <path
      d="M166.363 71.2586H166.213C166.222 71.248 166.234 71.2394 166.247 71.2336C166.26 71.2277 166.274 71.2247 166.288 71.2247C166.302 71.2247 166.316 71.2277 166.329 71.2336C166.342 71.2394 166.353 71.248 166.363 71.2586Z"
      fill="#FAE50A" />
    <path
      d="M194.109 67.1681C194.056 68.0708 193.8 68.9497 193.36 69.7393C190.699 75.3375 186.151 79.8137 180.519 82.3782C180.196 82.483 179.904 82.6666 179.67 82.9125C179.501 83.1471 179.382 83.4143 179.32 83.6972C178.038 88.706 178.321 93.815 177.405 98.8238C177.374 99.2717 177.192 99.6959 176.889 100.026C176.449 100.338 175.904 100.464 175.373 100.377H174.29C171.719 100.237 169.156 99.9639 166.613 99.5584C166.166 99.5355 165.743 99.3448 165.43 99.0241C165.215 98.6259 165.156 98.1616 165.264 97.7218C165.383 94.2824 165.244 90.8388 164.847 87.4204C164.706 85.7538 164.706 84.0782 164.847 82.4116C165.056 81.5786 165.056 80.7068 164.847 79.8738C164.752 79.6306 164.617 79.4049 164.448 79.2059C163.72 78.5105 162.953 77.8582 162.149 77.2525C161.044 75.9941 160.256 74.4883 159.851 72.8614C159.085 70.5574 158.285 68.27 157.553 65.966C157.003 64.2964 157.869 63.5117 159.118 62.8772C159.568 62.6435 160.067 62.4264 160.584 62.1927C161.026 63.977 161.662 65.7071 162.482 67.3518C163.293 68.9762 164.6 70.2983 166.213 71.1251C166.186 71.1251 166.161 71.1356 166.142 71.1544C166.124 71.1732 166.113 71.1987 166.113 71.2252C166.113 71.2877 166.128 71.3492 166.157 71.4045C166.186 71.4598 166.228 71.5072 166.28 71.5425C167.395 72.5776 168.528 73.5961 169.61 74.6479C169.819 74.8657 170.076 75.0315 170.36 75.1321C170.693 75.1321 171.842 74.8316 171.792 75.4493C171.8 75.4823 171.8 75.5166 171.792 75.5495C171.792 75.7666 171.592 75.9335 171.559 76.1506C171.553 76.2824 171.586 76.4131 171.655 76.526C171.723 76.6389 171.823 76.7291 171.942 76.785C172.179 76.904 172.445 76.9504 172.708 76.9186C172.999 76.901 173.285 76.8391 173.558 76.7349C174.007 76.5513 174.374 76.234 174.807 76.017C175.467 75.7692 176.188 75.7284 176.872 75.9001C177.618 75.9564 178.369 75.9114 179.104 75.7666C181.229 75.2698 183.194 74.2417 184.816 72.778C187.083 70.5746 189.187 68.2086 191.112 65.6989C191.326 65.4098 191.606 65.1754 191.928 65.0143C192.2 64.9242 192.491 64.9141 192.769 64.9851C193.046 65.0561 193.298 65.2053 193.493 65.415C193.715 65.6459 193.885 65.9219 193.991 66.2244C194.098 66.5268 194.138 66.8487 194.109 67.1681Z"
      fill="white" />
    <path
      d="M194.109 67.1681C194.056 68.0708 193.8 68.9497 193.36 69.7393C190.699 75.3375 186.151 79.8137 180.519 82.3782C180.196 82.483 179.904 82.6666 179.67 82.9125C179.501 83.1471 179.382 83.4143 179.32 83.6972C178.038 88.706 178.321 93.815 177.405 98.8238C177.374 99.2717 177.192 99.6959 176.889 100.026C176.449 100.338 175.904 100.464 175.373 100.377H174.29C171.719 100.237 169.156 99.9639 166.613 99.5584C166.166 99.5355 165.743 99.3448 165.43 99.0241C165.215 98.6259 165.156 98.1616 165.264 97.7218C165.383 94.2824 165.244 90.8388 164.847 87.4204C164.706 85.7538 164.706 84.0782 164.847 82.4116C165.056 81.5786 165.056 80.7068 164.847 79.8738C164.752 79.6306 164.617 79.4049 164.448 79.2059C163.72 78.5105 162.953 77.8582 162.149 77.2525C161.044 75.9941 160.256 74.4883 159.851 72.8614C159.085 70.5574 158.285 68.27 157.553 65.966C157.003 64.2964 157.869 63.5117 159.118 62.8772C159.568 62.6435 160.067 62.4264 160.584 62.1927C161.026 63.977 161.662 65.7071 162.482 67.3518C163.293 68.9762 164.6 70.2983 166.213 71.1251C166.186 71.1251 166.161 71.1356 166.142 71.1544C166.124 71.1732 166.113 71.1987 166.113 71.2252C166.113 71.2877 166.128 71.3492 166.157 71.4045C166.186 71.4598 166.228 71.5072 166.28 71.5425C167.395 72.5776 168.528 73.5961 169.61 74.6479C169.819 74.8657 170.076 75.0315 170.36 75.1321C170.693 75.1321 171.842 74.8316 171.792 75.4493C171.8 75.4823 171.8 75.5166 171.792 75.5495C171.792 75.7666 171.592 75.9335 171.559 76.1506C171.553 76.2824 171.586 76.4131 171.655 76.526C171.723 76.6389 171.823 76.7291 171.942 76.785C172.179 76.904 172.445 76.9504 172.708 76.9186C172.999 76.901 173.285 76.8391 173.558 76.7349C174.007 76.5513 174.374 76.234 174.807 76.017C175.467 75.7692 176.188 75.7284 176.872 75.9001C177.618 75.9564 178.369 75.9114 179.104 75.7666C181.229 75.2698 183.194 74.2417 184.816 72.778C187.083 70.5746 189.187 68.2086 191.112 65.6989C191.326 65.4098 191.606 65.1754 191.928 65.0143C192.2 64.9242 192.491 64.9141 192.769 64.9851C193.046 65.0561 193.298 65.2053 193.493 65.415C193.715 65.6459 193.885 65.9219 193.991 66.2244C194.098 66.5268 194.138 66.8487 194.109 67.1681Z"
      fill="url(#paint0_linear)" />
    <path
      d="M164.88 79.807C164.747 79.6066 164.631 79.3896 164.481 79.2059C163.753 78.5105 162.986 77.8582 162.182 77.2525C161.077 75.9941 160.289 74.4883 159.884 72.8614C159.118 70.5574 158.319 68.27 157.586 65.966C157.036 64.2964 157.902 63.5117 159.151 62.8772C159.407 63.1167 159.612 63.4066 159.751 63.7287C160.01 64.4365 160.194 65.1696 160.3 65.9159C160.711 67.62 161.422 69.237 162.399 70.691C163.382 72.2604 164.314 73.8632 165.297 75.4326C165.355 75.5203 165.4 75.6159 165.43 75.7165C165.47 75.8697 165.47 76.0307 165.43 76.184C165.233 76.8016 165.11 77.4405 165.064 78.0873C164.98 78.488 165.197 79.5899 164.88 79.807Z"
      fill="url(#paint1_linear)" />
    <path
      d="M194.109 67.1681C194.056 68.0708 193.799 68.9496 193.36 69.7393C190.699 75.3375 186.151 79.8137 180.519 82.3782C180.196 82.483 179.904 82.6666 179.67 82.9124C179.5 83.1471 179.381 83.4142 179.32 83.6972C178.038 88.706 178.321 93.8149 177.405 98.8238C177.374 99.2717 177.192 99.6959 176.888 100.026C176.449 100.338 175.904 100.464 175.373 100.376H174.29C173.978 100.355 173.677 100.245 173.424 100.059C173.184 99.829 173.031 99.5221 172.991 99.1911C172.766 97.2967 172.682 95.388 172.741 93.481C172.777 92.5206 172.584 91.5655 172.178 90.6946C171.773 89.8237 171.167 89.062 170.41 88.4722C170.026 88.2879 169.672 88.0458 169.361 87.7543C169.214 87.6018 169.132 87.3983 169.132 87.1866C169.132 86.9749 169.214 86.7714 169.361 86.619C169.519 86.5137 169.704 86.4558 169.893 86.452C170.978 86.3752 172.058 86.2303 173.124 86.0179C174.196 85.8194 175.153 85.2232 175.806 84.3483C176.355 83.5135 176.472 82.445 177.072 81.6435C177.888 80.8159 178.922 80.237 180.053 79.9739C183.975 78.4389 187.447 75.9349 190.145 72.6945C191.345 71.2419 192.261 68.6206 193.743 67.5354C193.847 67.3959 193.97 67.2722 194.109 67.1681Z"
      fill="url(#paint2_linear)" />
    <path
      d="M110.037 131.732C103.157 136.712 95.8572 141.081 88.2194 144.788L87.1368 144.921H86.8371C86.5447 144.908 86.2588 144.832 85.999 144.697C85.7392 144.562 85.5118 144.372 85.3328 144.14C85.1537 143.908 85.0271 143.639 84.9619 143.354C84.8967 143.068 84.8943 142.771 84.9551 142.484C85.0253 141.877 85.131 141.275 85.2715 140.681C86.2375 136.139 87.209 131.604 88.1861 127.073C88.2412 126.908 88.2382 126.728 88.1777 126.564C88.1171 126.4 88.0026 126.262 87.853 126.172L70.4156 112.598C70.305 112.489 70.1617 112.421 70.008 112.403C69.8543 112.384 69.6989 112.418 69.5662 112.498C68.5337 113.032 67.4678 113.516 66.4019 114C62.6546 115.77 59.0405 117.44 55.3432 119.109C55.1007 119.232 54.835 119.302 54.5636 119.315C54.2921 119.328 54.021 119.284 53.768 119.184C53.5149 119.085 53.2856 118.933 53.095 118.739C52.9044 118.545 52.7568 118.313 52.6618 118.058L52.4453 117.557C52.4453 117.557 52.4453 117.373 52.4453 117.29C52.6109 115.948 52.8443 114.617 53.1448 113.299C55.0071 106.37 57.2931 99.5614 59.9899 92.9134C61.251 89.3357 63.7193 86.312 66.9681 84.365C69.4329 82.9681 72.1505 82.077 74.9623 81.7437C77.1371 81.4296 79.328 81.2401 81.5242 81.1761C82.2071 81.1761 82.9066 81.1761 83.6061 81.1761C83.7509 81.1562 83.8903 81.1075 84.0161 81.033C84.1419 80.9585 84.2516 80.8595 84.3389 80.742C86.0043 78.3043 87.5699 75.7332 89.3353 73.3957C91.7948 69.8776 94.4411 66.4946 97.2628 63.2612C100.204 60.2577 103.295 57.4047 106.523 54.7129C109.787 51.817 113.298 49.2135 117.015 46.9325C122.597 43.7166 128.578 41.2522 134.802 39.603C136.001 39.2356 137.217 38.9184 138.433 38.5845L140.931 38.3174H141.381C141.964 38.3866 142.515 38.6214 142.969 38.9941C143.424 39.3668 143.763 39.8619 143.946 40.4211C143.954 40.4932 143.954 40.566 143.946 40.6381C144.059 41.1891 144.137 41.7468 144.179 42.3077C144.423 45.2387 144.368 48.187 144.012 51.1065C143.649 56.3818 142.613 61.5887 140.931 66.6004C139.245 71.2628 137.242 75.8036 134.936 80.191C133.116 83.9386 130.965 87.5148 128.507 90.8764C124.587 96.0231 120.395 100.956 115.949 105.652C115.811 105.778 115.713 105.942 115.669 106.123C115.624 106.305 115.635 106.496 115.699 106.671C115.999 107.973 116.282 109.275 116.516 110.578C117.111 113.278 117.336 116.048 117.182 118.809C117.083 121.373 116.385 123.878 115.144 126.123C113.903 128.367 112.154 130.288 110.037 131.732Z"
      fill="white" />
    <path
      d="M80.9746 119.544L70.4822 111.346C70.4822 111.346 74.9956 97.4046 81.5242 81.1761C82.207 81.1761 82.9065 81.1761 83.606 81.1761C83.7508 81.1562 83.8902 81.1076 84.016 81.033C84.1418 80.9585 84.2516 80.8595 84.3388 80.742C86.0043 78.3044 87.5698 75.7332 89.3352 73.3957C91.7947 69.8777 94.4411 66.4946 97.2628 63.2612C100.204 60.2578 103.295 57.4047 106.523 54.7129C109.787 51.817 113.298 49.2135 117.015 46.9325C122.597 43.7166 128.578 41.2522 134.802 39.603C136.001 39.2356 137.217 38.9184 138.433 38.5845L140.931 38.3174H141.381C141.964 38.3866 142.515 38.6214 142.969 38.9941C143.424 39.3668 143.762 39.8619 143.946 40.4211C143.954 40.4932 143.954 40.566 143.946 40.6381C138 45.48 95.0477 81.0592 80.9746 119.544Z"
      fill="url(#paint3_linear)" />
    <path
      d="M93.016 88.4722C94.3424 87.7722 95.5326 86.8391 96.5301 85.7174C98.5786 88.4388 99.2948 91.9116 100.677 95.0171C100.937 95.7812 101.44 96.4384 102.109 96.887C102.709 97.1386 103.36 97.2417 104.008 97.1876C105.29 97.1876 106.573 97.1876 107.855 97.1876C109.222 97.1937 110.575 96.9032 111.819 96.3361C112.502 96.0021 113.168 95.3343 112.968 94.6665C112.768 93.9986 111.802 93.6981 111.02 93.6981C110.035 93.761 109.046 93.6709 108.088 93.431C106.882 92.9072 105.922 91.939 105.407 90.7262C104.873 89.5974 104.439 88.4243 104.108 87.22C103.423 85.1744 102.577 83.1868 101.576 81.2762C101.01 80.0864 100.237 79.0067 99.2948 78.0873C98.8236 77.6319 98.2641 77.2784 97.651 77.0486C97.038 76.8189 96.3844 76.7178 95.7307 76.7516C93.3658 77.0021 91.8335 79.4063 89.6351 80.3079C88.5875 80.5658 87.567 80.9237 86.5873 81.3764C85.9664 81.8305 85.4355 82.3967 85.0218 83.046C83.7323 84.8601 82.7893 86.898 82.2405 89.0566C85.7922 90.1126 89.5987 89.9062 93.016 88.4722Z"
      fill="url(#paint4_linear)" />
    <path
      d="M96.5633 75.3492C96.5633 75.3492 99.8942 75.0486 101.127 76.2674C103.046 78.4965 104.38 81.1708 105.007 84.0478C105.307 85.1497 105.673 86.2183 105.923 87.387C106.08 88.4209 106.383 89.4271 106.823 90.3756C107.093 90.9055 107.55 91.316 108.105 91.5276C108.542 91.6278 108.991 91.6616 109.437 91.6278C109.995 91.6225 110.552 91.6616 111.103 91.7446C111.209 91.7528 111.312 91.7872 111.403 91.8448C111.465 91.9277 111.505 92.0255 111.519 92.1286C111.552 92.4166 111.509 92.7082 111.395 92.9746C111.281 93.241 111.1 93.473 110.87 93.648C109.46 94.3254 107.865 94.5077 106.34 94.1656C104.508 93.5478 103.925 90.1418 103.258 88.5557C102.292 86.235 101.26 83.9643 100.161 81.7103C100.044 81.4117 99.8623 81.1435 99.6278 80.9256C99.3514 80.7436 99.0388 80.624 98.7118 80.575L94.698 79.7068C95.0811 78.2543 96.147 76.785 96.5633 75.3492Z"
      fill="#FFBBAB" />
    <path
      d="M114.484 86.3518C119.92 86.3518 124.327 81.9341 124.327 76.4845C124.327 71.0349 119.92 66.6171 114.484 66.6171C109.048 66.6171 104.641 71.0349 104.641 76.4845C104.641 81.9341 109.048 86.3518 114.484 86.3518Z"
      fill="#FAE50A" />
    <path
      d="M114.484 83.046C118.099 83.046 121.029 80.1083 121.029 76.4845C121.029 72.8607 118.099 69.923 114.484 69.923C110.869 69.923 107.938 72.8607 107.938 76.4845C107.938 80.1083 110.869 83.046 114.484 83.046Z"
      fill="#473F47" />
    <path
      d="M85.4548 81.7604L69.8494 112.748L55.0435 119.427C55.0435 119.427 52.1622 121.347 52.4454 117.406C52.7285 113.466 60.373 91.3273 62.6546 88.2552C64.9363 85.1831 71.8813 79.5733 85.4548 81.7604Z"
      fill="#FAE50A" />
    <path
      d="M115.566 106.003L88.1861 127.073L84.189 145.673C84.7877 146.468 85.6435 147.029 86.6098 147.26C87.5761 147.492 88.5926 147.379 89.4851 146.942C93.2324 145.69 112.602 132.75 115.017 129.828C117.432 126.906 121.062 118.625 115.566 106.003Z"
      fill="#FAE50A" />
    <path
      d="M130.772 40.9053L143.962 51.1232C143.962 51.1232 144.645 40.538 143.962 38.3174C143.28 36.0968 130.772 40.9053 130.772 40.9053Z"
      fill="#FAE50A" />
    <path d="M70.4988 111.362L67.884 116.021L85.4546 129.544L89.5017 126.072L70.4988 111.362Z" fill="#FAE50A" />
    <path
      d="M67.8842 116.004C67.8842 116.004 17.1543 170.166 50.4301 195.043C83.706 219.92 122.161 203.525 122.161 203.525C122.161 203.525 67.2013 215.696 59.1905 184.792C54.5105 166.71 85.4548 129.544 85.4548 129.544L67.8842 116.004Z"
      fill="url(#paint5_linear)" opacity="0.36" />
    <path
      d="M175.473 164.189L187.83 171.719H156.453L168.811 163.705V157.176L166.746 154.722V146.942C146.527 139.929 147.01 96.4529 147.01 96.4529H197.274C197.274 96.4529 197.274 96.6199 197.274 96.9705C197.573 101.746 199.256 138.343 180.319 146.324C179.573 146.646 178.805 146.914 178.021 147.125V153.804L176.355 155.958L175.473 157.076V164.189Z"
      fill="#FAE50A" />
    <path
      d="M149.142 134.136C148.532 134.157 147.924 134.057 147.352 133.842C146.781 133.627 146.257 133.301 145.811 132.884C145.273 132.295 144.911 131.566 144.767 130.78C144.623 129.995 144.702 129.185 144.995 128.442L147.293 129.11C147.147 129.452 147.097 129.828 147.15 130.196C147.203 130.564 147.356 130.911 147.593 131.197C147.946 131.473 148.363 131.656 148.806 131.729C149.248 131.802 149.701 131.763 150.124 131.615C150.435 131.555 150.725 131.42 150.972 131.222C151.219 131.024 151.414 130.769 151.54 130.479C151.34 129.778 148.209 127.14 145.778 124.92C139.116 119.076 130.788 111.813 133.503 105.97C133.878 105.051 134.466 104.235 135.22 103.59C135.973 102.945 136.869 102.49 137.833 102.263C143.163 101.028 150.224 106.771 150.524 107.022L149.009 108.875C147.227 107.406 141.83 103.866 138.366 104.601C137.758 104.751 137.194 105.046 136.725 105.462C136.255 105.878 135.892 106.401 135.668 106.988C133.703 111.196 141.914 118.358 147.326 123.1C152.156 127.324 154.271 129.261 153.855 131.047C153.64 131.76 153.24 132.404 152.696 132.911C152.152 133.419 151.483 133.772 150.757 133.935C150.229 134.068 149.686 134.136 149.142 134.136Z"
      fill="#FAE50A" />
    <path
      d="M196.707 134.136C196.173 134.138 195.64 134.065 195.125 133.919C194.397 133.758 193.725 133.406 193.177 132.898C192.63 132.391 192.227 131.746 192.011 131.03C191.595 129.244 193.676 127.307 198.539 123.083C203.969 118.341 212.18 111.179 210.198 106.971C209.982 106.428 209.64 105.944 209.2 105.561C208.759 105.177 208.233 104.905 207.666 104.768C203.886 103.933 197.673 108.107 195.658 109.776L194.226 107.906C194.576 107.639 202.553 101.228 208.282 102.447C209.209 102.656 210.073 103.086 210.8 103.699C211.527 104.312 212.097 105.09 212.463 105.97C215.194 111.813 206.867 119.076 200.188 124.92C197.707 127.09 194.626 129.778 194.426 130.646C194.559 131.064 195.242 131.448 195.841 131.615C196.261 131.768 196.713 131.81 197.153 131.736C197.594 131.663 198.008 131.478 198.356 131.197C198.576 130.904 198.713 130.557 198.751 130.192C198.789 129.828 198.728 129.459 198.573 129.127L200.888 128.459C201.181 129.203 201.258 130.014 201.111 130.8C200.963 131.586 200.597 132.314 200.055 132.9C199.606 133.318 199.079 133.642 198.505 133.854C197.93 134.066 197.319 134.162 196.707 134.136Z"
      fill="#FAE50A" />
    <path
      d="M180.353 146.341C179.607 146.662 178.838 146.93 178.054 147.142V147.309H166.746V146.942C146.527 139.929 147.01 96.4529 147.01 96.4529H159.334C159.334 96.4529 153.872 125.254 172.242 142.701C176.156 146.441 177.571 145.506 180.353 146.341Z"
      fill="white" opacity="0.28" />
    <path d="M187.081 147.292C186.319 147.404 185.545 147.404 184.783 147.292H187.081Z" fill="#FAE50A" />
    <path
      d="M170.443 147.309V154.572L172.242 156.993V163.721L167.379 171.752H158.019L170.143 164.172V157.143L167.745 154.204V146.892L170.443 147.309Z"
      fill="white" opacity="0.28" />
    <path
      d="M166.746 147.326V146.958C146.527 139.946 147.01 96.4696 147.01 96.4696H150.591C150.591 96.4696 148.392 134.754 167.745 146.892L168.411 147.326H166.746Z"
      fill="url(#paint6_linear)" />
    <path d="M178.054 147.142V153.82L176.389 155.974C172.858 154.755 172.309 152.151 178.054 147.142Z" fill="#FAE50A" />
    <path
      d="M180.353 146.341C179.606 146.662 178.838 146.93 178.054 147.142C196.774 130.863 187.081 96.4696 187.081 96.4696L197.307 96.9872C197.557 101.762 199.222 138.36 180.353 146.341Z"
      fill="url(#paint7_linear)" />
    <path
      d="M87.2369 52.4255L88.4027 50.038C89.4866 47.6775 90.7622 45.4103 92.2166 43.2594C95.2311 39.1021 96.7966 34.0766 99.3947 29.6354C99.5651 29.3942 99.6686 29.1118 99.6945 28.8173C99.6945 28.1662 98.9284 27.7989 98.2789 27.6319C97.4259 27.3471 96.5148 27.2839 95.6308 27.4483C95.1903 27.5366 94.7846 27.7506 94.4626 28.0646C94.1405 28.3785 93.9158 28.7791 93.8154 29.218C93.8045 29.7271 93.8436 30.236 93.932 30.7374C93.8804 32.1586 93.3918 33.529 92.533 34.6609L85.9711 45.313C85.0673 46.5063 84.4929 47.9171 84.3057 49.4035C84.3439 50.1785 84.6626 50.913 85.2022 51.4692C85.7418 52.0255 86.4652 52.3655 87.2369 52.4255Z"
      fill="#FFBBAB" />
    <path
      d="M87.2367 52.4255C87.7684 51.6131 87.9654 50.6256 87.7863 49.6707C87.595 48.4146 87.595 47.1367 87.7863 45.8807C88.1826 44.6739 88.2516 43.3831 87.9862 42.1408C87.9862 42.1408 87.9862 42.0239 87.8863 41.9905C87.8464 41.9653 87.8002 41.9519 87.753 41.9519C87.7059 41.9519 87.6597 41.9653 87.6198 41.9905C87.2134 42.2355 86.9111 42.6217 86.7704 43.0757C86.0709 44.7453 83.9391 47.567 84.2389 49.3868C84.2748 50.1755 84.6011 50.9228 85.1549 51.4841C85.7087 52.0454 86.4505 52.3809 87.2367 52.4255Z"
      fill="url(#paint8_linear)" />
    <path d="M81.7908 53.5108L85.2216 49.1531L89.302 52.893L85.4548 56.3658L81.7908 53.5108Z" fill="#FAE50A" />
    <path d="M81.7908 53.5108L85.2216 49.1531L89.302 52.893L85.4548 56.3658L81.7908 53.5108Z"
      fill="url(#paint9_linear)" />
    <path
      d="M90.5678 58.8869L92.15 59.4378C92.6996 59.6215 93.8154 60.3561 94.3317 59.8552C94.848 59.3544 94.3317 57.835 94.3317 57.2841C94.0691 55.3075 93.5945 53.365 92.9161 51.4905C92.664 51.0426 92.5085 50.5467 92.4597 50.0347C92.411 49.5228 92.47 49.0063 92.6329 48.5186C92.7762 48.2632 92.9839 48.05 93.2353 47.9006C93.4867 47.7511 93.773 47.6706 94.0652 47.6671C94.3537 47.6719 94.6366 47.7474 94.8892 47.8871C95.1418 48.0268 95.3564 48.2265 95.5142 48.4686C95.74 49.0042 95.902 49.5646 95.9972 50.1382C96.1743 50.5123 96.2435 50.9287 96.197 51.3403C96.1052 51.5233 96.0272 51.7131 95.9639 51.9079C95.9524 52.1257 95.9923 52.343 96.0804 52.5424L98.1623 58.0354C98.7391 59.2093 98.9591 60.5272 98.7951 61.8254C98.5061 62.6791 97.9372 63.4095 97.1811 63.8976C96.425 64.3857 95.5264 64.6028 94.6315 64.5134C92.6458 64.3159 90.7345 63.6525 89.0522 62.5767C88.869 62.4765 88.6525 62.2929 88.7191 62.0925C88.7696 62.0054 88.845 61.9356 88.9356 61.8922C89.4742 61.5803 89.9265 61.1384 90.2513 60.6066C90.4326 60.3637 90.5554 60.0821 90.6103 59.7838C90.6652 59.4856 90.6506 59.1786 90.5678 58.8869Z"
      fill="#FFBBAB" />
    <path
      d="M85.871 49.9545C85.8314 50.1833 85.7206 50.3936 85.5546 50.5556C85.2981 50.7167 85.0069 50.814 84.7052 50.8394C84.3949 50.8741 84.1006 50.9956 83.8558 51.19C83.8179 51.2591 83.798 51.3366 83.798 51.4154C83.798 51.4942 83.8179 51.5718 83.8558 51.6408L84.3055 53.5608C84.355 53.7013 84.355 53.8545 84.3055 53.9949C84.2167 54.161 84.0676 54.2865 83.8891 54.3456C83.223 54.6628 82.3736 54.9466 81.7907 54.4958C81.4971 54.2308 81.2934 53.8806 81.2077 53.4941C80.3501 51.3625 79.8331 49.1087 79.6755 46.8157C79.6129 46.125 79.6995 45.429 79.9294 44.775C80.1593 44.121 80.5272 43.5243 81.0079 43.0257C81.9437 42.2646 83.1386 41.8992 84.3388 42.0072C84.6076 42.0203 84.8692 42.0986 85.1013 42.2353C85.3333 42.3719 85.5289 42.5629 85.6712 42.7919C85.8544 43.1258 85.6712 43.4764 85.7878 43.8438C85.8402 44.3791 85.9349 44.9095 86.0709 45.4299C86.1392 45.6796 86.2226 45.925 86.3207 46.1645C86.4326 46.3618 86.5114 46.5761 86.5539 46.799C86.5553 47.2092 86.4642 47.6144 86.2874 47.9844C86.1205 48.4378 86.0033 48.908 85.9377 49.3868C85.971 49.6206 85.971 49.7875 85.871 49.9545Z"
      fill="#FFBBAB" />
    <path
      d="M86.3873 41.7901C86.3206 42.2153 86.1504 42.6174 85.8919 42.961C85.6334 43.3046 85.2945 43.5791 84.9051 43.7603C83.1064 44.6118 80.5415 44.4949 81.2244 47.0995C81.6174 48.1163 81.7708 49.2104 81.6726 50.2965C81.5744 51.3825 81.2272 52.4311 80.6581 53.3605C80.2418 53.9782 79.7255 54.5125 79.3591 55.1637C78.7595 56.1654 78.5763 57.3842 77.9268 58.3526C76.6277 60.2726 73.9963 60.6733 71.698 60.6733C70.8187 60.6544 69.9452 60.8193 69.1331 61.1575C67.2512 62.0925 66.4018 64.864 64.32 64.9642C62.2381 65.0644 61.522 62.343 60.3562 61.0073C59.5598 60.2034 59.024 59.1773 58.819 58.0631C58.6139 56.949 58.7492 55.7988 59.207 54.763C61.3555 50.3552 68.367 50.6223 71.0151 46.4149C72.6473 43.9773 72.6473 40.6381 75.4785 39.0687C77.0346 38.3426 78.743 38.0059 80.4574 38.0873C82.1718 38.1687 83.8409 38.6659 85.3214 39.5362C85.7121 39.7527 86.0252 40.0867 86.2164 40.4911C86.4077 40.8955 86.4674 41.3499 86.3873 41.7901Z"
      fill="#797990" />
    <path
      d="M89.4685 73.1119C89.6707 73.2768 89.9025 73.4014 90.1513 73.4792C91.0232 73.6938 91.9288 73.7336 92.8161 73.5961C94.0976 73.5293 95.3817 73.5293 96.6633 73.5961C96.9746 73.5801 97.2831 73.6618 97.546 73.8298C97.979 74.1971 97.8457 74.8817 97.6625 75.416C96.8643 77.8463 95.9358 80.2317 94.8812 82.5619C94.517 83.5803 93.8838 84.4804 93.0492 85.1664C92.39 85.5765 91.6525 85.8438 90.8841 85.9511C89.3397 86.2685 87.7765 86.486 86.2042 86.6023C84.6732 86.8261 83.1104 86.618 81.6908 86.0012C80.1746 85.0848 79.0571 83.6308 78.5597 81.9274C77.922 80.2859 77.7659 78.4958 78.1101 76.7683C78.5264 74.9318 79.3592 74.3975 78.8429 72.4274C78.1593 69.9839 77.6802 67.4875 77.4106 64.9642C77.1941 62.6739 77.4087 60.3631 78.0434 58.1523C78.2956 57.1285 78.7239 56.1567 79.3092 55.2805C79.9069 54.4202 80.784 53.7947 81.7907 53.5108C82.2899 53.382 82.814 53.3867 83.3108 53.5244C83.8076 53.6621 84.2597 53.928 84.622 54.2955C86.5706 56.4159 89.2353 56.5327 91.4504 58.3526C91.5799 58.436 91.6792 58.5589 91.7335 58.7032C91.7912 58.8537 91.7912 59.0203 91.7335 59.1707L90.2846 62.6602C90.1417 63.0358 89.9573 63.3942 89.735 63.7287C89.5351 64.0126 89.2853 64.2463 89.1021 64.5301C88.5991 65.3834 88.3452 66.361 88.3693 67.3518C88.3526 69.0214 87.9529 71.9265 89.4685 73.1119Z"
      fill="#FAE50A" />
    <path
      d="M87.3533 75.3492C87.09 75.4783 86.7973 75.5356 86.5049 75.515C86.2124 75.4945 85.9306 75.397 85.6878 75.2323C84.522 74.3641 85.4213 73.763 85.6878 72.8614C86.0446 71.6145 86.1409 70.3073 85.9709 69.0214C85.7877 66.5337 85.5879 64.0126 85.4047 61.5415C85.5046 62.1593 88.4358 63.0275 89.585 63.8122C89.3851 64.096 89.1353 64.3298 88.9521 64.6136C87.6531 66.517 88.3359 70.3237 88.3692 72.4774C88.4525 73.5126 88.3192 74.8149 87.3533 75.3492Z"
      fill="url(#paint10_linear)" />
    <path
      d="M100.86 43.226C101.356 45.1308 101.356 47.1314 100.86 49.0362C100.771 49.1262 100.663 49.1947 100.544 49.2366C100.452 49.2684 100.352 49.2684 100.261 49.2366C99.5113 49.0863 95.2644 46.2981 90.268 48.0511C90.0151 48.146 89.7445 48.1836 89.4754 48.1613C89.2063 48.139 88.9455 48.0574 88.7116 47.9223C88.4777 47.7872 88.2764 47.6019 88.1222 47.3797C87.9681 47.1575 87.8648 46.9039 87.8198 46.637C87.7748 46.3702 87.7892 46.0966 87.862 45.836C87.9347 45.5754 88.0641 45.3341 88.2407 45.1294C88.4173 44.9247 88.6369 44.7617 88.8838 44.652C89.1306 44.5423 89.3985 44.4887 89.6684 44.4949C89.6684 44.4949 96.2137 42.3077 97.6293 38.4175C97.8125 37.8332 98.1789 37.6161 98.5953 37.6829C98.8573 37.735 99.1029 37.8496 99.3114 38.0168C100.146 39.6415 100.672 41.4081 100.86 43.226Z"
      fill="#FAE50A" />
    <path
      d="M100.86 43.226C101.356 45.1308 101.356 47.1314 100.86 49.0362C100.836 49.0864 100.801 49.1305 100.758 49.1652C100.715 49.1999 100.664 49.2243 100.61 49.2366C99.9442 49.2366 98.9449 46.7322 98.4786 43.6434C98.0122 40.5546 98.0455 38.1337 98.5951 37.6829H98.7284C98.9116 37.6829 99.0948 37.7998 99.3113 38.0836C100.138 39.6878 100.663 41.431 100.86 43.226Z"
      fill="url(#paint11_linear)" />
    <path
      d="M110.57 91.3606C110.344 91.4268 110.149 91.5737 110.024 91.7736C109.898 91.9735 109.849 92.2126 109.887 92.4459C109.887 92.713 110.204 92.9801 110.087 93.2306C110.047 93.299 109.991 93.3572 109.925 93.4006C109.858 93.4441 109.783 93.4716 109.704 93.481C108.142 93.9602 106.459 93.8473 104.974 93.1638C104.938 93.2955 104.937 93.4346 104.972 93.5667C105.007 93.6988 105.077 93.8191 105.174 93.9151C105.402 94.3386 105.742 94.691 106.157 94.9336C106.433 95.0403 106.726 95.0968 107.023 95.1005C109.347 95.0698 111.603 94.3044 113.468 92.9134C113.646 92.8015 113.803 92.6604 113.934 92.496C113.99 92.4058 114.02 92.3017 114.02 92.1954C114.02 92.0892 113.99 91.985 113.934 91.8949C113.834 91.6445 113.535 91.561 113.268 91.5109C112.804 91.4417 112.337 91.3971 111.869 91.3773C111.442 91.2836 111 91.278 110.57 91.3606Z"
      fill="#FAE50A" />
  </g>
  <defs>
    <linearGradient gradientUnits="userSpaceOnUse" id="paint0_linear" x1="171.559" x2="176.547" y1="116.755"
      y2="57.0524">
      <stop offset="0.01" />
      <stop offset="0.08" stop-opacity="0.69" />
      <stop offset="0.21" stop-opacity="0.32" />
      <stop offset="1" stop-opacity="0" />
    </linearGradient>
    <linearGradient gradientUnits="userSpaceOnUse" id="paint1_linear" x1="978.689" x2="1266.67" y1="1259.98"
      y2="828.136">
      <stop offset="0.01" />
      <stop offset="0.08" stop-opacity="0.69" />
      <stop offset="0.21" stop-opacity="0.32" />
      <stop offset="1" stop-opacity="0" />
    </linearGradient>
    <linearGradient gradientUnits="userSpaceOnUse" id="paint2_linear" x1="-1900.61" x2="-2675.16" y1="10590.3"
      y2="10003">
      <stop offset="0.01" />
      <stop offset="0.08" stop-opacity="0.69" />
      <stop offset="0.21" stop-opacity="0.32" />
      <stop offset="1" stop-opacity="0" />
    </linearGradient>
    <linearGradient gradientUnits="userSpaceOnUse" id="paint3_linear" x1="34.6581" x2="191.041" y1="63.712"
      y2="94.7348">
      <stop offset="0.01" />
      <stop offset="0.13" stop-opacity="0.69" />
      <stop offset="0.25" stop-opacity="0.32" />
      <stop offset="1" stop-opacity="0" />
    </linearGradient>
    <linearGradient gradientUnits="userSpaceOnUse" id="paint4_linear" x1="2250.47" x2="2172.29" y1="1088.72"
      y2="2045.22">
      <stop offset="0.01" stop-color="#797990" />
      <stop offset="0.13" stop-opacity="0.69" />
      <stop offset="0.25" stop-opacity="0.32" />
      <stop offset="1" stop-opacity="0" />
    </linearGradient>
    <linearGradient gradientUnits="userSpaceOnUse" id="paint5_linear" x1="2151.75" x2="10415.3" y1="6104.85"
      y2="20891.9">
      <stop offset="0.01" />
      <stop offset="0.08" stop-opacity="0.69" />
      <stop offset="0.21" stop-opacity="0.32" />
      <stop offset="1" stop-opacity="0" />
    </linearGradient>
    <linearGradient gradientUnits="userSpaceOnUse" id="paint6_linear" x1="1660.57" x2="3099.47" y1="4861.68"
      y2="4752.19">
      <stop offset="0.01" stop-color="#797990" />
      <stop offset="0.13" stop-opacity="0.69" />
      <stop offset="0.25" stop-opacity="0.32" />
      <stop offset="1" stop-opacity="0" />
    </linearGradient>
    <linearGradient gradientUnits="userSpaceOnUse" id="paint7_linear" x1="3145.35" x2="1589.54" y1="4762.89"
      y2="4679.55">
      <stop offset="0.01" />
      <stop offset="0.13" stop-opacity="0.69" />
      <stop offset="0.25" stop-opacity="0.32" />
      <stop offset="1" stop-opacity="0" />
    </linearGradient>
    <linearGradient gradientUnits="userSpaceOnUse" id="paint8_linear" x1="782.537" x2="812.358" y1="-1356.67"
      y2="-1365.48">
      <stop offset="0.01" stop-color="#797990" />
      <stop offset="0.13" stop-opacity="0.69" />
      <stop offset="0.25" stop-opacity="0.32" />
      <stop offset="1" stop-opacity="0" />
    </linearGradient>
    <linearGradient gradientUnits="userSpaceOnUse" id="paint9_linear" x1="2105.83" x2="2208.39" y1="-1075.84"
      y2="-1108.28">
      <stop offset="0.01" stop-color="#797990" />
      <stop offset="0.13" stop-opacity="0.69" />
      <stop offset="0.25" stop-opacity="0.32" />
      <stop offset="1" stop-opacity="0" />
    </linearGradient>
    <linearGradient gradientUnits="userSpaceOnUse" id="paint10_linear" x1="888.386" x2="975.356" y1="-1756.38"
      y2="-1764.67">
      <stop offset="0.01" stop-color="#797990" />
      <stop offset="0.13" stop-opacity="0.69" />
      <stop offset="0.25" stop-opacity="0.32" />
      <stop offset="1" stop-opacity="0" />
    </linearGradient>
    <linearGradient gradientUnits="userSpaceOnUse" id="paint11_linear" x1="475.868" x2="514.432" y1="-1517.3"
      y2="-1520.54">
      <stop offset="0.01" stop-color="#797990" />
      <stop offset="0.13" stop-color="#797990" stop-opacity="0.69" />
      <stop offset="0.25" stop-opacity="0.32" />
      <stop offset="1" stop-opacity="0" />
    </linearGradient>
    <clipPath id="clip0">
      <rect fill="white" height="218" width="276" />
    </clipPath>
  </defs>
</svg>
